{
.formatVersion = 3;
familyName = "8bitoperator JVEC";
customParameters = (
{
name = glyphOrder;
value = (
space,
exclam,
quotedbl,
numbersign,
dollar,
percent,
ampersand,
quotesingle,
parenleft,
parenright,
asterisk,
plus,
comma,
hyphen,
period,
slash,
zero,
one,
two,
three,
four,
five,
six,
seven,
eight,
nine,
colon,
semicolon,
less,
equal,
greater,
question,
at,
A,
B,
C,
D,
E,
F,
G,
H,
I,
J,
K,
L,
M,
N,
O,
P,
Q,
R,
S,
T,
U,
V,
W,
X,
Y,
Z,
bracketleft,
backslash,
bracketright,
asciicircum,
underscore,
grave,
a,
b,
c,
d,
e,
f,
g,
h,
i,
j,
k,
l,
m,
n,
o,
p,
q,
r,
s,
t,
u,
v,
w,
x,
y,
z,
braceleft,
bar,
braceright,
asciitilde,
exclamdown,
cent,
sterling,
currency,
yen,
brokenbar,
section,
dieresis,
copyright,
ordfeminine,
guillemotleft,
logicalnot,
uni00AD,
registered,
degree,
plusminus,
twosuperior,
threesuperior,
acute,
uni00B5,
paragraph,
periodcentered,
cedilla,
onesuperior,
ordmasculine,
guillemotright,
onequarter,
onehalf,
threequarters,
questiondown,
Agrave,
Aacute,
Acircumflex,
Atilde,
Adieresis,
Aring,
AE,
Ccedilla,
Egrave,
Eacute,
Ecircumflex,
Edieresis,
Igrave,
Iacute,
Icircumflex,
Idieresis,
Eth,
Ntilde,
Ograve,
Oacute,
Ocircumflex,
Otilde,
Odieresis,
multiply,
Oslash,
Ugrave,
Uacute,
Ucircumflex,
Udieresis,
Yacute,
Thorn,
germandbls,
agrave,
aacute,
acircumflex,
atilde,
adieresis,
aring,
ae,
ccedilla,
egrave,
eacute,
ecircumflex,
edieresis,
igrave,
iacute,
icircumflex,
idieresis,
eth,
ntilde,
ograve,
oacute,
ocircumflex,
otilde,
odieresis,
divide,
oslash,
ugrave,
uacute,
ucircumflex,
udieresis,
yacute,
thorn,
ydieresis,
dotlessi,
Lslash,
lslash,
OE,
oe,
Scaron,
scaron,
Ydieresis,
Zcaron,
zcaron,
Germandbls,
emdash,
quoteleft,
quoteright,
quotesinglbase,
quotereversed,
quotedblleft,
quotedblright,
quotedblbase,
dagger,
bullet,
ellipsis,
guilsinglleft,
guilsinglright,
Euro,
trademark,
fi,
fl,
Acyr,
Gecyr,
Iecyr,
Icyr,
hacyr,
Zecyr,
Kacyr,
Emcyr,
Encyr,
Ocyr,
Pecyr,
Yacyr,
acyr,
ercyr,
iecyr,
iocyr,
Hacyr,
Tecyr,
Escyr,
Softcyr,
kacyr,
ocyr,
pecyr,

glyphs = (
{
glyphname = exclam;
layers = (
{
layerId = "66415128-06F0-485A-B2B6-660C25DA677B";
shapes = (
{
closed = 1;
nodes = (
(128,0,l),
(128,128,l),
(256,128,l),
(256,0,l)
);
},
{
closed = 1;
nodes = (
(128,192,l),
(128,384,l),
(64,384,l),
(64,576,l),
(128,576,l),
(128,640,l),
(256,640,l),
(256,576,l),
(320,576,l),
(320,384,l),
(256,384,l),
(256,192,l)
);
}
);
width = 384;
}
);
unicode = 33;
},
{
glyphname = quotedbl;
layers = (
{
layerId = "66415128-06F0-485A-B2B6-660C25DA677B";
shapes = (
{
closed = 1;
nodes = (
(0,320,l),
(0,384,l),
(64,384,l),
(64,320,l)
);
},
{
closed = 1;
nodes = (
(192,320,l),
(192,384,l),
(256,384,l),
(256,320,l)
);
},
{
closed = 1;
nodes = (
(64,384,l),
(64,448,l),
(0,448,l),
(0,576,l),
(128,576,l),
(128,384,l)
);
},
{
closed = 1;
nodes = (
(256,384,l),
(256,448,l),
(192,448,l),
(192,576,l),
(320,576,l),
(320,384,l)
);
}
);
width = 384;
}
);
unicode = 34;
},
{
glyphname = numbersign;
layers = (
{
layerId = "66415128-06F0-485A-B2B6-660C25DA677B";
shapes = (
{
closed = 1;
nodes = (
(256,192,l),
(256,384,l),
(192,384,l),
(192,192,l)
);
},
{
closed = 1;
nodes = (
(64,0,l),
(64,128,l),
(0,128,l),
(0,192,l),
(64,192,l),
(64,384,l),
(0,384,l),
(0,448,l),
(64,448,l),
(64,576,l),
(192,576,l),
(192,448,l),
(256,448,l),
(256,576,l),
(384,576,l),
(384,448,l),
(448,448,l),
(448,384,l),
(384,384,l),
(384,192,l),
(448,192,l),
(448,128,l),
(384,128,l),
(384,0,l),
(256,0,l),
(256,128,l),
(192,128,l),
(192,0,l)
);
}
);
width = 512;
}
);
unicode = 35;
},
{
glyphname = dollar;
layers = (
{
layerId = "66415128-06F0-485A-B2B6-660C25DA677B";
shapes = (
{
closed = 1;
nodes = (
(128,-128,l),
(128,0,l),
(64,0,l),
(64,64,l),
(0,64,l),
(0,192,l),
(128,192,l),
(128,64,l),
(256,64,l),
(256,256,l),
(64,256,l),
(64,320,l),
(0,320,l),
(0,512,l),
(64,512,l),
(64,576,l),
(128,576,l),
(128,704,l),
(256,704,l),
(256,576,l),
(320,576,l),
(320,512,l),
(384,512,l),
(384,384,l),
(256,384,l),
(256,512,l),
(128,512,l),
(128,320,l),
(320,320,l),
(320,256,l),
(384,256,l),
(384,64,l),
(320,64,l),
(320,0,l),
(256,0,l),
(256,-128,l)
);
}
);
width = 448;
}
);
unicode = 36;
},
{
glyphname = percent;
layers = (
{
layerId = "66415128-06F0-485A-B2B6-660C25DA677B";
shapes = (
{
closed = 1;
nodes = (
(256,0,l),
(256,64,l),
(384,64,l),
(384,0,l)
);
},
{
closed = 1;
nodes = (
(0,64,l),
(0,128,l),
(64,128,l),
(64,64,l)
);
},
{
closed = 1;
nodes = (
(64,128,l),
(64,192,l),
(128,192,l),
(128,128,l)
);
},
{
closed = 1;
nodes = (
(192,64,l),
(192,192,l),
(256,192,l),
(256,64,l)
);
},
{
closed = 1;
nodes = (
(384,64,l),
(384,192,l),
(448,192,l),
(448,64,l)
);
},
{
closed = 1;
nodes = (
(128,192,l),
(128,256,l),
(192,256,l),
(192,192,l)
);
},
{
closed = 1;
nodes = (
(256,192,l),
(256,256,l),
(384,256,l),
(384,192,l)
);
},
{
closed = 1;
nodes = (
(192,256,l),
(192,320,l),
(256,320,l),
(256,256,l)
);
},
{
closed = 1;
nodes = (
(64,320,l),
(64,384,l),
(192,384,l),
(192,320,l)
);
},
{
closed = 1;
nodes = (
(256,320,l),
(256,384,l),
(320,384,l),
(320,320,l)
);
},
{
closed = 1;
nodes = (
(320,384,l),
(320,448,l),
(384,448,l),
(384,384,l)
);
},
{
closed = 1;
nodes = (
(0,384,l),
(0,512,l),
(64,512,l),
(64,384,l)
);
},
{
closed = 1;
nodes = (
(192,384,l),
(192,512,l),
(256,512,l),
(256,384,l)
);
},
{
closed = 1;
nodes = (
(384,448,l),
(384,512,l),
(448,512,l),
(448,448,l)
);
},
{
closed = 1;
nodes = (
(64,512,l),
(64,576,l),
(192,576,l),
(192,512,l)
);
}
);
width = 512;
}
);
unicode = 37;
},
{
glyphname = ampersand;
layers = (
{
layerId = "66415128-06F0-485A-B2B6-660C25DA677B";
shapes = (
{
closed = 1;
nodes = (
(256,384,l),
(256,512,l),
(192,512,l),
(192,384,l)
);
},
{
closed = 1;
nodes = (
(64,0,l),
(64,64,l),
(0,64,l),
(0,256,l),
(64,256,l),
(64,320,l),
(128,320,l),
(128,384,l),
(64,384,l),
(64,512,l),
(128,512,l),
(128,576,l),
(320,576,l),
(320,512,l),
(384,512,l),
(384,384,l),
(320,384,l),
(320,320,l),
(256,320,l),
(256,256,l),
(448,256,l),
(448,192,l),
(384,192,l),
(384,64,l),
(448,64,l),
(448,0,l),
(320,0,l),
(320,64,l),
(256,64,l),
(256,192,l),
(192,192,l),
(192,256,l),
(128,256,l),
(128,64,l),
(256,64,l),
(256,0,l)
);
}
);
width = 512;
}
);
unicode = 38;
},
{
glyphname = quotesingle;
layers = (
{
layerId = "66415128-06F0-485A-B2B6-660C25DA677B";
shapes = (
{
closed = 1;
nodes = (
(0,320,l),
(0,384,l),
(64,384,l),
(64,320,l)
);
},
{
closed = 1;
nodes = (
(64,384,l),
(64,448,l),
(0,448,l),
(0,576,l),
(128,576,l),
(128,384,l)
);
}
);
width = 192;
}
);
unicode = 39;
},
{
glyphname = parenleft;
layers = (
{
layerId = "66415128-06F0-485A-B2B6-660C25DA677B";
shapes = (
{
closed = 1;
nodes = (
(128,0,l),
(128,64,l),
(64,64,l),
(64,128,l),
(0,128,l),
(0,448,l),
(64,448,l),
(64,512,l),
(128,512,l),
(128,576,l),
(256,576,l),
(256,512,l),
(192,512,l),
(192,448,l),
(128,448,l),
(128,128,l),
(192,128,l),
(192,64,l),
(256,64,l),
(256,0,l)
);
}
);
width = 320;
}
);
unicode = 40;
},
{
glyphname = parenright;
layers = (
{
layerId = "66415128-06F0-485A-B2B6-660C25DA677B";
shapes = (
{
closed = 1;
nodes = (
(0,0,l),
(0,64,l),
(64,64,l),
(64,128,l),
(128,128,l),
(128,448,l),
(64,448,l),
(64,512,l),
(0,512,l),
(0,576,l),
(128,576,l),
(128,512,l),
(192,512,l),
(192,448,l),
(256,448,l),
(256,128,l),
(192,128,l),
(192,64,l),
(128,64,l),
(128,0,l)
);
}
);
width = 320;
}
);
unicode = 41;
},
{
glyphname = asterisk;
layers = (
{
layerId = "66415128-06F0-485A-B2B6-660C25DA677B";
shapes = (
{
closed = 1;
nodes = (
(64,128,l),
(64,192,l),
(128,192,l),
(128,256,l),
(0,256,l),
(0,320,l),
(128,320,l),
(128,384,l),
(64,384,l),
(64,448,l),
(192,448,l),
(192,384,l),
(320,384,l),
(320,448,l),
(448,448,l),
(448,384,l),
(384,384,l),
(384,320,l),
(512,320,l),
(512,256,l),
(384,256,l),
(384,192,l),
(448,192,l),
(448,128,l),
(320,128,l),
(320,192,l),
(192,192,l),
(192,128,l)
);
}
);
width = 576;
}
);
unicode = 42;
},
{
glyphname = plus;
layers = (
{
layerId = "66415128-06F0-485A-B2B6-660C25DA677B";
shapes = (
{
closed = 1;
nodes = (
(128,128,l),
(128,256,l),
(0,256,l),
(0,320,l),
(128,320,l),
(128,448,l),
(256,448,l),
(256,320,l),
(384,320,l),
(384,256,l),
(256,256,l),
(256,128,l)
);
}
);
width = 448;
}
);
unicode = 43;
},
{
glyphname = comma;
layers = (
{
layerId = "66415128-06F0-485A-B2B6-660C25DA677B";
shapes = (
{
closed = 1;
nodes = (
(0,-128,l),
(0,-64,l),
(64,-64,l),
(64,-128,l)
);
},
{
closed = 1;
nodes = (
(64,-64,l),
(64,0,l),
(0,0,l),
(0,128,l),
(128,128,l),
(128,-64,l)
);
}
);
width = 192;
}
);
unicode = 44;
},
{
glyphname = hyphen;
layers = (
{
layerId = "66415128-06F0-485A-B2B6-660C25DA677B";
shapes = (
{
closed = 1;
nodes = (
(0,256,l),
(0,320,l),
(384,320,l),
(384,256,l)
);
}
);
width = 448;
}
);
unicode = 45;
},
{
glyphname = period;
layers = (
{
layerId = "66415128-06F0-485A-B2B6-660C25DA677B";
shapes = (
{
closed = 1;
nodes = (
(0,0,l),
(0,128,l),
(128,128,l),
(128,0,l)
);
}
);
width = 192;
}
);
unicode = 46;
},
{
glyphname = slash;
layers = (
{
layerId = "66415128-06F0-485A-B2B6-660C25DA677B";
shapes = (
{
closed = 1;
nodes = (
(0,-64,l),
(0,64,l),
(64,64,l),
(64,192,l),
(128,192,l),
(128,320,l),
(192,320,l),
(192,448,l),
(256,448,l),
(256,576,l),
(384,576,l),
(384,448,l),
(320,448,l),
(320,320,l),
(256,320,l),
(256,192,l),
(192,192,l),
(192,64,l),
(128,64,l),
(128,-64,l)
);
}
);
width = 448;
}
);
unicode = 47;
},
{
glyphname = zero;
layers = (
{
layerId = "66415128-06F0-485A-B2B6-660C25DA677B";
shapes = (
{
closed = 1;
nodes = (
(256,64,l),
(256,256,l),
(192,256,l),
(192,128,l),
(128,128,l),
(128,64,l)
);
},
{
closed = 1;
nodes = (
(192,320,l),
(192,448,l),
(256,448,l),
(256,512,l),
(128,512,l),
(128,320,l)
);
},
{
closed = 1;
nodes = (
(64,0,l),
(64,64,l),
(0,64,l),
(0,512,l),
(64,512,l),
(64,576,l),
(320,576,l),
(320,512,l),
(384,512,l),
(384,64,l),
(320,64,l),
(320,0,l)
);
}
);
width = 448;
}
);
unicode = 48;
},
{
glyphname = one;
layers = (
{
layerId = "66415128-06F0-485A-B2B6-660C25DA677B";
shapes = (
{
closed = 1;
nodes = (
(0,0,l),
(0,64,l),
(128,64,l),
(128,448,l),
(0,448,l),
(0,512,l),
(128,512,l),
(128,576,l),
(256,576,l),
(256,64,l),
(384,64,l),
(384,0,l)
);
}
);
width = 448;
}
);
unicode = 49;
},
{
glyphname = two;
layers = (
{
layerId = "66415128-06F0-485A-B2B6-660C25DA677B";
shapes = (
{
closed = 1;
nodes = (
(0,0,l),
(0,128,l),
(64,128,l),
(64,192,l),
(128,192,l),
(128,256,l),
(192,256,l),
(192,320,l),
(256,320,l),
(256,512,l),
(128,512,l),
(128,384,l),
(0,384,l),
(0,512,l),
(64,512,l),
(64,576,l),
(320,576,l),
(320,512,l),
(384,512,l),
(384,320,l),
(320,320,l),
(320,256,l),
(256,256,l),
(256,192,l),
(192,192,l),
(192,128,l),
(128,128,l),
(128,64,l),
(384,64,l),
(384,0,l)
);
}
);
width = 448;
}
);
unicode = 50;
},
{
glyphname = three;
layers = (
{
layerId = "66415128-06F0-485A-B2B6-660C25DA677B";
shapes = (
{
closed = 1;
nodes = (
(64,0,l),
(64,64,l),
(0,64,l),
(0,192,l),
(128,192,l),
(128,64,l),
(256,64,l),
(256,256,l),
(128,256,l),
(128,320,l),
(256,320,l),
(256,512,l),
(128,512,l),
(128,384,l),
(0,384,l),
(0,512,l),
(64,512,l),
(64,576,l),
(320,576,l),
(320,512,l),
(384,512,l),
(384,320,l),
(320,320,l),
(320,256,l),
(384,256,l),
(384,64,l),
(320,64,l),
(320,0,l)
);
}
);
width = 448;
}
);
unicode = 51;
},
{
glyphname = four;
layers = (
{
layerId = "66415128-06F0-485A-B2B6-660C25DA677B";
shapes = (
{
closed = 1;
nodes = (
(256,192,l),
(256,384,l),
(192,384,l),
(192,320,l),
(128,320,l),
(128,192,l)
);
},
{
closed = 1;
nodes = (
(256,0,l),
(256,128,l),
(0,128,l),
(0,320,l),
(64,320,l),
(64,384,l),
(128,384,l),
(128,448,l),
(192,448,l),
(192,512,l),
(256,512,l),
(256,576,l),
(384,576,l),
(384,0,l)
);
}
);
width = 448;
}
);
unicode = 52;
},
{
glyphname = five;
layers = (
{
layerId = "66415128-06F0-485A-B2B6-660C25DA677B";
shapes = (
{
closed = 1;
nodes = (
(64,0,l),
(64,64,l),
(0,64,l),
(0,192,l),
(128,192,l),
(128,64,l),
(256,64,l),
(256,256,l),
(0,256,l),
(0,576,l),
(384,576,l),
(384,512,l),
(128,512,l),
(128,320,l),
(320,320,l),
(320,256,l),
(384,256,l),
(384,64,l),
(320,64,l),
(320,0,l)
);
}
);
width = 448;
}
);
unicode = 53;
},
{
glyphname = six;
layers = (
{
layerId = "66415128-06F0-485A-B2B6-660C25DA677B";
shapes = (
{
closed = 1;
nodes = (
(256,64,l),
(256,256,l),
(128,256,l),
(128,64,l)
);
},
{
closed = 1;
nodes = (
(64,0,l),
(64,64,l),
(0,64,l),
(0,448,l),
(64,448,l),
(64,512,l),
(128,512,l),
(128,576,l),
(384,576,l),
(384,512,l),
(192,512,l),
(192,448,l),
(128,448,l),
(128,320,l),
(320,320,l),
(320,256,l),
(384,256,l),
(384,64,l),
(320,64,l),
(320,0,l)
);
}
);
width = 448;
}
);
unicode = 54;
},
{
glyphname = seven;
layers = (
{
layerId = "66415128-06F0-485A-B2B6-660C25DA677B";
shapes = (
{
closed = 1;
nodes = (
(128,0,l),
(128,256,l),
(192,256,l),
(192,384,l),
(256,384,l),
(256,512,l),
(0,512,l),
(0,576,l),
(384,576,l),
(384,384,l),
(320,384,l),
(320,256,l),
(256,256,l),
(256,0,l)
);
}
);
width = 448;
}
);
unicode = 55;
},
{
glyphname = eight;
layers = (
{
layerId = "66415128-06F0-485A-B2B6-660C25DA677B";
shapes = (
{
closed = 1;
nodes = (
(256,64,l),
(256,256,l),
(128,256,l),
(128,64,l)
);
},
{
closed = 1;
nodes = (
(256,320,l),
(256,512,l),
(128,512,l),
(128,320,l)
);
},
{
closed = 1;
nodes = (
(64,0,l),
(64,64,l),
(0,64,l),
(0,256,l),
(64,256,l),
(64,320,l),
(0,320,l),
(0,512,l),
(64,512,l),
(64,576,l),
(320,576,l),
(320,512,l),
(384,512,l),
(384,320,l),
(320,320,l),
(320,256,l),
(384,256,l),
(384,64,l),
(320,64,l),
(320,0,l)
);
}
);
width = 448;
}
);
unicode = 56;
},
{
glyphname = nine;
layers = (
{
layerId = "66415128-06F0-485A-B2B6-660C25DA677B";
shapes = (
{
closed = 1;
nodes = (
(256,320,l),
(256,512,l),
(128,512,l),
(128,320,l)
);
},
{
closed = 1;
nodes = (
(64,0,l),
(64,64,l),
(192,64,l),
(192,128,l),
(256,128,l),
(256,256,l),
(64,256,l),
(64,320,l),
(0,320,l),
(0,512,l),
(64,512,l),
(64,576,l),
(320,576,l),
(320,512,l),
(384,512,l),
(384,128,l),
(320,128,l),
(320,64,l),
(256,64,l),
(256,0,l)
);
}
);
width = 448;
}
);
unicode = 57;
},
{
glyphname = colon;
layers = (
{
layerId = "66415128-06F0-485A-B2B6-660C25DA677B";
shapes = (
{
closed = 1;
nodes = (
(0,0,l),
(0,128,l),
(128,128,l),
(128,0,l)
);
},
{
closed = 1;
nodes = (
(0,320,l),
(0,448,l),
(128,448,l),
(128,320,l)
);
}
);
width = 192;
}
);
unicode = 58;
},
{
glyphname = semicolon;
layers = (
{
layerId = "66415128-06F0-485A-B2B6-660C25DA677B";
shapes = (
{
closed = 1;
nodes = (
(0,-128,l),
(0,-64,l),
(64,-64,l),
(64,-128,l)
);
},
{
closed = 1;
nodes = (
(64,-64,l),
(64,0,l),
(0,0,l),
(0,128,l),
(128,128,l),
(128,-64,l)
);
},
{
closed = 1;
nodes = (
(0,320,l),
(0,448,l),
(128,448,l),
(128,320,l)
);
}
);
width = 192;
}
);
unicode = 59;
},
{
glyphname = less;
layers = (
{
layerId = "66415128-06F0-485A-B2B6-660C25DA677B";
shapes = (
{
closed = 1;
nodes = (
(256,0,l),
(256,64,l),
(192,64,l),
(192,128,l),
(128,128,l),
(128,192,l),
(64,192,l),
(64,256,l),
(0,256,l),
(0,320,l),
(64,320,l),
(64,384,l),
(128,384,l),
(128,448,l),
(192,448,l),
(192,512,l),
(256,512,l),
(256,576,l),
(320,576,l),
(320,448,l),
(256,448,l),
(256,384,l),
(192,384,l),
(192,320,l),
(128,320,l),
(128,256,l),
(192,256,l),
(192,192,l),
(256,192,l),
(256,128,l),
(320,128,l),
(320,0,l)
);
}
);
width = 384;
}
);
unicode = 60;
},
{
glyphname = equal;
layers = (
{
layerId = "66415128-06F0-485A-B2B6-660C25DA677B";
shapes = (
{
closed = 1;
nodes = (
(0,192,l),
(0,256,l),
(384,256,l),
(384,192,l)
);
},
{
closed = 1;
nodes = (
(0,320,l),
(0,384,l),
(384,384,l),
(384,320,l)
);
}
);
width = 448;
}
);
unicode = 61;
},
{
glyphname = greater;
layers = (
{
layerId = "66415128-06F0-485A-B2B6-660C25DA677B";
shapes = (
{
closed = 1;
nodes = (
(0,0,l),
(0,128,l),
(64,128,l),
(64,192,l),
(128,192,l),
(128,256,l),
(192,256,l),
(192,320,l),
(128,320,l),
(128,384,l),
(64,384,l),
(64,448,l),
(0,448,l),
(0,576,l),
(64,576,l),
(64,512,l),
(128,512,l),
(128,448,l),
(192,448,l),
(192,384,l),
(256,384,l),
(256,320,l),
(320,320,l),
(320,256,l),
(256,256,l),
(256,192,l),
(192,192,l),
(192,128,l),
(128,128,l),
(128,64,l),
(64,64,l),
(64,0,l)
);
}
);
width = 384;
}
);
unicode = 62;
},
{
glyphname = question;
layers = (
{
layerId = "66415128-06F0-485A-B2B6-660C25DA677B";
shapes = (
{
closed = 1;
nodes = (
(128,0,l),
(128,128,l),
(256,128,l),
(256,0,l)
);
},
{
closed = 1;
nodes = (
(128,192,l),
(128,320,l),
(192,320,l),
(192,384,l),
(256,384,l),
(256,512,l),
(128,512,l),
(128,384,l),
(0,384,l),
(0,512,l),
(64,512,l),
(64,576,l),
(320,576,l),
(320,512,l),
(384,512,l),
(384,384,l),
(320,384,l),
(320,320,l),
(256,320,l),
(256,192,l)
);
}
);
width = 448;
}
);
unicode = 63;
},
{
glyphname = at;
layers = (
{
layerId = "66415128-06F0-485A-B2B6-660C25DA677B";
shapes = (
{
closed = 1;
nodes = (
(64,0,l),
(64,64,l),
(0,64,l),
(0,512,l),
(64,512,l),
(64,576,l),
(320,576,l),
(320,512,l),
(384,512,l),
(384,192,l),
(192,192,l),
(192,384,l),
(256,384,l),
(256,512,l),
(128,512,l),
(128,64,l),
(384,64,l),
(384,0,l)
);
}
);
width = 448;
}
);
unicode = 64;
},
{
glyphname = A;
layers = (
{
layerId = "66415128-06F0-485A-B2B6-660C25DA677B";
shapes = (
{
closed = 1;
nodes = (
(256,256,l),
(256,512,l),
(128,512,l),
(128,256,l)
);
},
{
closed = 1;
nodes = (
(0,0,l),
(0,512,l),
(64,512,l),
(64,576,l),
(320,576,l),
(320,512,l),
(384,512,l),
(384,0,l),
(256,0,l),
(256,192,l),
(128,192,l),
(128,0,l)
);
}
);
width = 448;
}
);
unicode = 65;
},
{
glyphname = B;
layers = (
{
layerId = "66415128-06F0-485A-B2B6-660C25DA677B";
shapes = (
{
closed = 1;
nodes = (
(256,64,l),
(256,256,l),
(128,256,l),
(128,64,l)
);
},
{
closed = 1;
nodes = (
(256,320,l),
(256,512,l),
(128,512,l),
(128,320,l)
);
},
{
closed = 1;
nodes = (
(0,0,l),
(0,576,l),
(320,576,l),
(320,512,l),
(384,512,l),
(384,320,l),
(320,320,l),
(320,256,l),
(384,256,l),
(384,64,l),
(320,64,l),
(320,0,l)
);
}
);
width = 448;
}
);
unicode = 66;
},
{
glyphname = C;
layers = (
{
layerId = "66415128-06F0-485A-B2B6-660C25DA677B";
shapes = (
{
closed = 1;
nodes = (
(64,0,l),
(64,64,l),
(0,64,l),
(0,512,l),
(64,512,l),
(64,576,l),
(320,576,l),
(320,512,l),
(384,512,l),
(384,384,l),
(256,384,l),
(256,512,l),
(128,512,l),
(128,64,l),
(256,64,l),
(256,192,l),
(384,192,l),
(384,64,l),
(320,64,l),
(320,0,l)
);
}
);
width = 448;
}
);
unicode = 67;
},
{
glyphname = D;
layers = (
{
layerId = "66415128-06F0-485A-B2B6-660C25DA677B";
shapes = (
{
closed = 1;
nodes = (
(256,64,l),
(256,512,l),
(128,512,l),
(128,64,l)
);
},
{
closed = 1;
nodes = (
(0,0,l),
(0,576,l),
(320,576,l),
(320,512,l),
(384,512,l),
(384,64,l),
(320,64,l),
(320,0,l)
);
}
);
width = 448;
}
);
unicode = 68;
},
{
glyphname = E;
layers = (
{
layerId = "66415128-06F0-485A-B2B6-660C25DA677B";
shapes = (
{
closed = 1;
nodes = (
(0,0,l),
(0,576,l),
(384,576,l),
(384,512,l),
(128,512,l),
(128,320,l),
(320,320,l),
(320,256,l),
(128,256,l),
(128,64,l),
(384,64,l),
(384,0,l)
);
}
);
width = 448;
}
);
unicode = 69;
},
{
glyphname = F;
layers = (
{
layerId = "66415128-06F0-485A-B2B6-660C25DA677B";
shapes = (
{
closed = 1;
nodes = (
(0,0,l),
(0,576,l),
(384,576,l),
(384,512,l),
(128,512,l),
(128,320,l),
(320,320,l),
(320,256,l),
(128,256,l),
(128,0,l)
);
}
);
width = 448;
}
);
unicode = 70;
},
{
glyphname = G;
layers = (
{
layerId = "66415128-06F0-485A-B2B6-660C25DA677B";
shapes = (
{
closed = 1;
nodes = (
(64,0,l),
(64,64,l),
(0,64,l),
(0,512,l),
(64,512,l),
(64,576,l),
(320,576,l),
(320,512,l),
(384,512,l),
(384,384,l),
(256,384,l),
(256,512,l),
(128,512,l),
(128,64,l),
(256,64,l),
(256,256,l),
(192,256,l),
(192,320,l),
(384,320,l),
(384,64,l),
(320,64,l),
(320,0,l)
);
}
);
width = 448;
}
);
unicode = 71;
},
{
glyphname = H;
layers = (
{
layerId = "66415128-06F0-485A-B2B6-660C25DA677B";
shapes = (
{
closed = 1;
nodes = (
(0,0,l),
(0,576,l),
(128,576,l),
(128,320,l),
(256,320,l),
(256,576,l),
(384,576,l),
(384,0,l),
(256,0,l),
(256,256,l),
(128,256,l),
(128,0,l)
);
}
);
width = 448;
}
);
unicode = 72;
},
{
glyphname = I;
layers = (
{
layerId = "66415128-06F0-485A-B2B6-660C25DA677B";
shapes = (
{
closed = 1;
nodes = (
(0,0,l),
(0,64,l),
(128,64,l),
(128,512,l),
(0,512,l),
(0,576,l),
(384,576,l),
(384,512,l),
(256,512,l),
(256,64,l),
(384,64,l),
(384,0,l)
);
}
);
width = 448;
}
);
unicode = 73;
},
{
glyphname = J;
layers = (
{
layerId = "66415128-06F0-485A-B2B6-660C25DA677B";
shapes = (
{
closed = 1;
nodes = (
(64,0,l),
(64,64,l),
(0,64,l),
(0,192,l),
(128,192,l),
(128,64,l),
(256,64,l),
(256,512,l),
(128,512,l),
(128,576,l),
(384,576,l),
(384,64,l),
(320,64,l),
(320,0,l)
);
}
);
width = 448;
}
);
unicode = 74;
},
{
glyphname = K;
layers = (
{
layerId = "66415128-06F0-485A-B2B6-660C25DA677B";
shapes = (
{
closed = 1;
nodes = (
(0,0,l),
(0,576,l),
(128,576,l),
(128,320,l),
(192,320,l),
(192,448,l),
(256,448,l),
(256,576,l),
(384,576,l),
(384,448,l),
(320,448,l),
(320,320,l),
(256,320,l),
(256,256,l),
(320,256,l),
(320,128,l),
(384,128,l),
(384,0,l),
(256,0,l),
(256,128,l),
(192,128,l),
(192,256,l),
(128,256,l),
(128,0,l)
);
}
);
width = 448;
}
);
unicode = 75;
},
{
glyphname = L;
layers = (
{
layerId = "66415128-06F0-485A-B2B6-660C25DA677B";
shapes = (
{
closed = 1;
nodes = (
(0,0,l),
(0,576,l),
(128,576,l),
(128,64,l),
(384,64,l),
(384,0,l)
);
}
);
width = 448;
}
);
unicode = 76;
},
{
glyphname = M;
layers = (
{
layerId = "66415128-06F0-485A-B2B6-660C25DA677B";
shapes = (
{
closed = 1;
nodes = (
(0,0,l),
(0,576,l),
(64,576,l),
(64,512,l),
(128,512,l),
(128,448,l),
(192,448,l),
(192,384,l),
(256,384,l),
(256,448,l),
(320,448,l),
(320,512,l),
(384,512,l),
(384,576,l),
(448,576,l),
(448,0,l),
(320,0,l),
(320,320,l),
(256,320,l),
(256,256,l),
(192,256,l),
(192,320,l),
(128,320,l),
(128,0,l)
);
}
);
width = 512;
}
);
unicode = 77;
},
{
glyphname = N;
layers = (
{
layerId = "66415128-06F0-485A-B2B6-660C25DA677B";
shapes = (
{
closed = 1;
nodes = (
(0,0,l),
(0,576,l),
(128,576,l),
(128,448,l),
(192,448,l),
(192,320,l),
(128,320,l),
(128,0,l)
);
},
{
closed = 1;
nodes = (
(256,0,l),
(256,192,l),
(192,192,l),
(192,320,l),
(256,320,l),
(256,576,l),
(384,576,l),
(384,0,l)
);
}
);
width = 448;
}
);
unicode = 78;
},
{
glyphname = O;
layers = (
{
layerId = "66415128-06F0-485A-B2B6-660C25DA677B";
shapes = (
{
closed = 1;
nodes = (
(256,64,l),
(256,512,l),
(128,512,l),
(128,64,l)
);
},
{
closed = 1;
nodes = (
(64,0,l),
(64,64,l),
(0,64,l),
(0,512,l),
(64,512,l),
(64,576,l),
(320,576,l),
(320,512,l),
(384,512,l),
(384,64,l),
(320,64,l),
(320,0,l)
);
}
);
width = 448;
}
);
unicode = 79;
},
{
glyphname = P;
layers = (
{
layerId = "66415128-06F0-485A-B2B6-660C25DA677B";
shapes = (
{
closed = 1;
nodes = (
(256,320,l),
(256,512,l),
(128,512,l),
(128,320,l)
);
},
{
closed = 1;
nodes = (
(0,0,l),
(0,576,l),
(320,576,l),
(320,512,l),
(384,512,l),
(384,320,l),
(320,320,l),
(320,256,l),
(128,256,l),
(128,0,l)
);
}
);
width = 448;
}
);
unicode = 80;
},
{
glyphname = Q;
layers = (
{
layerId = "66415128-06F0-485A-B2B6-660C25DA677B";
shapes = (
{
closed = 1;
nodes = (
(256,64,l),
(256,512,l),
(128,512,l),
(128,64,l)
);
},
{
closed = 1;
nodes = (
(192,-128,l),
(192,-64,l),
(128,-64,l),
(128,0,l),
(64,0,l),
(64,64,l),
(0,64,l),
(0,512,l),
(64,512,l),
(64,576,l),
(320,576,l),
(320,512,l),
(384,512,l),
(384,64,l),
(320,64,l),
(320,0,l),
(256,0,l),
(256,-64,l),
(384,-64,l),
(384,-128,l)
);
}
);
width = 448;
}
);
unicode = 81;
},
{
glyphname = R;
layers = (
{
layerId = "66415128-06F0-485A-B2B6-660C25DA677B";
shapes = (
{
closed = 1;
nodes = (
(256,320,l),
(256,512,l),
(128,512,l),
(128,320,l)
);
},
{
closed = 1;
nodes = (
(0,0,l),
(0,576,l),
(320,576,l),
(320,512,l),
(384,512,l),
(384,320,l),
(320,320,l),
(320,256,l),
(384,256,l),
(384,0,l),
(256,0,l),
(256,256,l),
(128,256,l),
(128,0,l)
);
}
);
width = 448;
}
);
unicode = 82;
},
{
glyphname = S;
layers = (
{
layerId = "66415128-06F0-485A-B2B6-660C25DA677B";
shapes = (
{
closed = 1;
nodes = (
(64,0,l),
(64,64,l),
(0,64,l),
(0,192,l),
(128,192,l),
(128,64,l),
(256,64,l),
(256,256,l),
(64,256,l),
(64,320,l),
(0,320,l),
(0,512,l),
(64,512,l),
(64,576,l),
(320,576,l),
(320,512,l),
(384,512,l),
(384,384,l),
(256,384,l),
(256,512,l),
(128,512,l),
(128,320,l),
(320,320,l),
(320,256,l),
(384,256,l),
(384,64,l),
(320,64,l),
(320,0,l)
);
}
);
width = 448;
}
);
unicode = 83;
},
{
glyphname = T;
layers = (
{
layerId = "66415128-06F0-485A-B2B6-660C25DA677B";
shapes = (
{
closed = 1;
nodes = (
(128,0,l),
(128,512,l),
(0,512,l),
(0,576,l),
(384,576,l),
(384,512,l),
(256,512,l),
(256,0,l)
);
}
);
width = 448;
}
);
unicode = 84;
},
{
glyphname = U;
layers = (
{
layerId = "66415128-06F0-485A-B2B6-660C25DA677B";
shapes = (
{
closed = 1;
nodes = (
(64,0,l),
(64,64,l),
(0,64,l),
(0,576,l),
(128,576,l),
(128,64,l),
(256,64,l),
(256,576,l),
(384,576,l),
(384,64,l),
(320,64,l),
(320,0,l)
);
}
);
width = 448;
}
);
unicode = 85;
},
{
glyphname = V;
layers = (
{
layerId = "66415128-06F0-485A-B2B6-660C25DA677B";
shapes = (
{
closed = 1;
nodes = (
(128,0,l),
(128,128,l),
(64,128,l),
(64,256,l),
(0,256,l),
(0,576,l),
(128,576,l),
(128,256,l),
(256,256,l),
(256,576,l),
(384,576,l),
(384,256,l),
(320,256,l),
(320,128,l),
(256,128,l),
(256,0,l)
);
}
);
width = 448;
}
);
unicode = 86;
},
{
glyphname = W;
layers = (
{
layerId = "66415128-06F0-485A-B2B6-660C25DA677B";
shapes = (
{
closed = 1;
nodes = (
(192,192,l),
(192,448,l),
(256,448,l),
(256,192,l)
);
},
{
closed = 1;
nodes = (
(64,0,l),
(64,192,l),
(0,192,l),
(0,576,l),
(128,576,l),
(128,192,l),
(192,192,l),
(192,0,l)
);
},
{
closed = 1;
nodes = (
(256,0,l),
(256,192,l),
(320,192,l),
(320,576,l),
(448,576,l),
(448,192,l),
(384,192,l),
(384,0,l)
);
}
);
width = 512;
}
);
unicode = 87;
},
{
glyphname = X;
layers = (
{
layerId = "66415128-06F0-485A-B2B6-660C25DA677B";
shapes = (
{
closed = 1;
nodes = (
(0,0,l),
(0,128,l),
(64,128,l),
(64,256,l),
(128,256,l),
(128,320,l),
(64,320,l),
(64,448,l),
(0,448,l),
(0,576,l),
(128,576,l),
(128,448,l),
(256,448,l),
(256,576,l),
(384,576,l),
(384,448,l),
(320,448,l),
(320,320,l),
(256,320,l),
(256,256,l),
(320,256,l),
(320,128,l),
(384,128,l),
(384,0,l),
(256,0,l),
(256,128,l),
(128,128,l),
(128,0,l)
);
}
);
width = 448;
}
);
unicode = 88;
},
{
glyphname = Y;
layers = (
{
layerId = "66415128-06F0-485A-B2B6-660C25DA677B";
shapes = (
{
closed = 1;
nodes = (
(128,0,l),
(128,256,l),
(64,256,l),
(64,320,l),
(0,320,l),
(0,576,l),
(128,576,l),
(128,320,l),
(256,320,l),
(256,576,l),
(384,576,l),
(384,320,l),
(320,320,l),
(320,256,l),
(256,256,l),
(256,0,l)
);
}
);
width = 448;
}
);
unicode = 89;
},
{
glyphname = Z;
layers = (
{
layerId = "66415128-06F0-485A-B2B6-660C25DA677B";
shapes = (
{
closed = 1;
nodes = (
(0,0,l),
(0,192,l),
(64,192,l),
(64,256,l),
(128,256,l),
(128,320,l),
(192,320,l),
(192,384,l),
(256,384,l),
(256,512,l),
(0,512,l),
(0,576,l),
(384,576,l),
(384,384,l),
(320,384,l),
(320,320,l),
(256,320,l),
(256,256,l),
(192,256,l),
(192,192,l),
(128,192,l),
(128,64,l),
(384,64,l),
(384,0,l)
);
}
);
width = 448;
}
);
unicode = 90;
},
{
glyphname = bracketleft;
layers = (
{
layerId = "66415128-06F0-485A-B2B6-660C25DA677B";
shapes = (
{
closed = 1;
nodes = (
(0,0,l),
(0,576,l),
(256,576,l),
(256,512,l),
(128,512,l),
(128,64,l),
(256,64,l),
(256,0,l)
);
}
);
width = 320;
}
);
unicode = 91;
},
{
glyphname = backslash;
layers = (
{
layerId = "66415128-06F0-485A-B2B6-660C25DA677B";
shapes = (
{
closed = 1;
nodes = (
(256,-64,l),
(256,64,l),
(192,64,l),
(192,192,l),
(128,192,l),
(128,320,l),
(64,320,l),
(64,448,l),
(0,448,l),
(0,576,l),
(128,576,l),
(128,448,l),
(192,448,l),
(192,320,l),
(256,320,l),
(256,192,l),
(320,192,l),
(320,64,l),
(384,64,l),
(384,-64,l)
);
}
);
width = 448;
}
);
unicode = 92;
},
{
glyphname = bracketright;
layers = (
{
layerId = "66415128-06F0-485A-B2B6-660C25DA677B";
shapes = (
{
closed = 1;
nodes = (
(0,0,l),
(0,64,l),
(128,64,l),
(128,512,l),
(0,512,l),
(0,576,l),
(256,576,l),
(256,0,l)
);
}
);
width = 320;
}
);
unicode = 93;
},
{
glyphname = asciicircum;
layers = (
{
layerId = "66415128-06F0-485A-B2B6-660C25DA677B";
shapes = (
{
closed = 1;
nodes = (
(0,384,l),
(0,512,l),
(64,512,l),
(64,576,l),
(128,576,l),
(128,640,l),
(256,640,l),
(256,576,l),
(320,576,l),
(320,512,l),
(384,512,l),
(384,384,l),
(320,384,l),
(320,448,l),
(256,448,l),
(256,512,l),
(128,512,l),
(128,448,l),
(64,448,l),
(64,384,l)
);
}
);
width = 448;
}
);
unicode = 94;
},
{
glyphname = underscore;
layers = (
{
layerId = "66415128-06F0-485A-B2B6-660C25DA677B";
shapes = (
{
closed = 1;
nodes = (
(0,-192,l),
(0,-128,l),
(256,-128,l),
(256,-192,l)
);
}
);
width = 320;
}
);
unicode = 95;
},
{
glyphname = grave;
layers = (
{
layerId = "66415128-06F0-485A-B2B6-660C25DA677B";
shapes = (
{
closed = 1;
nodes = (
(64,512,l),
(64,576,l),
(0,576,l),
(0,640,l),
(128,640,l),
(128,576,l),
(192,576,l),
(192,512,l)
);
}
);
width = 256;
}
);
unicode = 96;
},
{
glyphname = a;
layers = (
{
layerId = "66415128-06F0-485A-B2B6-660C25DA677B";
shapes = (
{
closed = 1;
nodes = (
(256,64,l),
(256,192,l),
(128,192,l),
(128,64,l)
);
},
{
closed = 1;
nodes = (
(64,0,l),
(64,64,l),
(0,64,l),
(0,192,l),
(64,192,l),
(64,256,l),
(256,256,l),
(256,384,l),
(128,384,l),
(128,320,l),
(0,320,l),
(0,384,l),
(64,384,l),
(64,448,l),
(320,448,l),
(320,384,l),
(384,384,l),
(384,0,l)
);
}
);
width = 448;
}
);
unicode = 97;
},
{
glyphname = b;
layers = (
{
layerId = "66415128-06F0-485A-B2B6-660C25DA677B";
shapes = (
{
closed = 1;
nodes = (
(256,64,l),
(256,384,l),
(128,384,l),
(128,64,l)
);
},
{
closed = 1;
nodes = (
(0,0,l),
(0,576,l),
(128,576,l),
(128,448,l),
(320,448,l),
(320,384,l),
(384,384,l),
(384,64,l),
(320,64,l),
(320,0,l)
);
}
);
width = 448;
}
);
unicode = 98;
},
{
glyphname = c;
layers = (
{
layerId = "66415128-06F0-485A-B2B6-660C25DA677B";
shapes = (
{
closed = 1;
nodes = (
(64,0,l),
(64,64,l),
(0,64,l),
(0,384,l),
(64,384,l),
(64,448,l),
(320,448,l),
(320,384,l),
(384,384,l),
(384,256,l),
(256,256,l),
(256,384,l),
(128,384,l),
(128,64,l),
(256,64,l),
(256,192,l),
(384,192,l),
(384,64,l),
(320,64,l),
(320,0,l)
);
}
);
width = 448;
}
);
unicode = 99;
},
{
glyphname = d;
layers = (
{
layerId = "66415128-06F0-485A-B2B6-660C25DA677B";
shapes = (
{
closed = 1;
nodes = (
(256,64,l),
(256,384,l),
(128,384,l),
(128,64,l)
);
},
{
closed = 1;
nodes = (
(64,0,l),
(64,64,l),
(0,64,l),
(0,384,l),
(64,384,l),
(64,448,l),
(256,448,l),
(256,576,l),
(384,576,l),
(384,0,l)
);
}
);
width = 448;
}
);
unicode = 100;
},
{
glyphname = e;
layers = (
{
layerId = "66415128-06F0-485A-B2B6-660C25DA677B";
shapes = (
{
closed = 1;
nodes = (
(256,256,l),
(256,384,l),
(128,384,l),
(128,256,l)
);
},
{
closed = 1;
nodes = (
(64,0,l),
(64,64,l),
(0,64,l),
(0,384,l),
(64,384,l),
(64,448,l),
(320,448,l),
(320,384,l),
(384,384,l),
(384,192,l),
(128,192,l),
(128,64,l),
(256,64,l),
(256,128,l),
(384,128,l),
(384,64,l),
(320,64,l),
(320,0,l)
);
}
);
width = 448;
}
);
unicode = 101;
},
{
glyphname = f;
layers = (
{
layerId = "66415128-06F0-485A-B2B6-660C25DA677B";
shapes = (
{
closed = 1;
nodes = (
(128,0,l),
(128,320,l),
(0,320,l),
(0,384,l),
(128,384,l),
(128,512,l),
(192,512,l),
(192,576,l),
(384,576,l),
(384,512,l),
(256,512,l),
(256,384,l),
(384,384,l),
(384,320,l),
(256,320,l),
(256,0,l)
);
}
);
width = 448;
}
);
unicode = 102;
},
{
glyphname = g;
layers = (
{
layerId = "66415128-06F0-485A-B2B6-660C25DA677B";
shapes = (
{
closed = 1;
nodes = (
(256,64,l),
(256,384,l),
(128,384,l),
(128,64,l)
);
},
{
closed = 1;
nodes = (
(64,-192,l),
(64,-128,l),
(0,-128,l),
(0,-64,l),
(128,-64,l),
(128,-128,l),
(256,-128,l),
(256,0,l),
(64,0,l),
(64,64,l),
(0,64,l),
(0,384,l),
(64,384,l),
(64,448,l),
(384,448,l),
(384,-128,l),
(320,-128,l),
(320,-192,l)
);
}
);
width = 448;
}
);
unicode = 103;
},
{
glyphname = h;
layers = (
{
layerId = "66415128-06F0-485A-B2B6-660C25DA677B";
shapes = (
{
closed = 1;
nodes = (
(0,0,l),
(0,576,l),
(128,576,l),
(128,448,l),
(320,448,l),
(320,384,l),
(384,384,l),
(384,0,l),
(256,0,l),
(256,384,l),
(128,384,l),
(128,0,l)
);
}
);
width = 448;
}
);
unicode = 104;
},
{
glyphname = i;
layers = (
{
layerId = "66415128-06F0-485A-B2B6-660C25DA677B";
shapes = (
{
closed = 1;
nodes = (
(0,0,l),
(0,64,l),
(128,64,l),
(128,384,l),
(0,384,l),
(0,448,l),
(256,448,l),
(256,64,l),
(384,64,l),
(384,0,l)
);
},
{
closed = 1;
nodes = (
(128,512,l),
(128,640,l),
(256,640,l),
(256,512,l)
);
}
);
width = 448;
}
);
unicode = 105;
},
{
glyphname = j;
layers = (
{
layerId = "66415128-06F0-485A-B2B6-660C25DA677B";
shapes = (
{
closed = 1;
nodes = (
(64,-192,l),
(64,-128,l),
(0,-128,l),
(0,-64,l),
(128,-64,l),
(128,-128,l),
(256,-128,l),
(256,384,l),
(128,384,l),
(128,448,l),
(384,448,l),
(384,-128,l),
(320,-128,l),
(320,-192,l)
);
},
{
closed = 1;
nodes = (
(256,512,l),
(256,640,l),
(384,640,l),
(384,512,l)
);
}
);
width = 448;
}
);
unicode = 106;
},
{
glyphname = k;
layers = (
{
layerId = "66415128-06F0-485A-B2B6-660C25DA677B";
shapes = (
{
closed = 1;
nodes = (
(0,0,l),
(0,576,l),
(128,576,l),
(128,256,l),
(192,256,l),
(192,320,l),
(256,320,l),
(256,448,l),
(384,448,l),
(384,320,l),
(320,320,l),
(320,256,l),
(256,256,l),
(256,192,l),
(320,192,l),
(320,128,l),
(384,128,l),
(384,0,l),
(256,0,l),
(256,128,l),
(192,128,l),
(192,192,l),
(128,192,l),
(128,0,l)
);
}
);
width = 448;
}
);
unicode = 107;
},
{
glyphname = l;
layers = (
{
layerId = "66415128-06F0-485A-B2B6-660C25DA677B";
shapes = (
{
closed = 1;
nodes = (
(0,0,l),
(0,64,l),
(128,64,l),
(128,512,l),
(0,512,l),
(0,576,l),
(256,576,l),
(256,64,l),
(384,64,l),
(384,0,l)
);
}
);
width = 448;
}
);
unicode = 108;
},
{
glyphname = m;
layers = (
{
layerId = "66415128-06F0-485A-B2B6-660C25DA677B";
shapes = (
{
closed = 1;
nodes = (
(0,0,l),
(0,448,l),
(192,448,l),
(192,384,l),
(256,384,l),
(256,448,l),
(384,448,l),
(384,384,l),
(448,384,l),
(448,0,l),
(320,0,l),
(320,320,l),
(256,320,l),
(256,64,l),
(192,64,l),
(192,320,l),
(128,320,l),
(128,0,l)
);
}
);
width = 512;
}
);
unicode = 109;
},
{
glyphname = n;
layers = (
{
layerId = "66415128-06F0-485A-B2B6-660C25DA677B";
shapes = (
{
closed = 1;
nodes = (
(0,0,l),
(0,448,l),
(320,448,l),
(320,384,l),
(384,384,l),
(384,0,l),
(256,0,l),
(256,384,l),
(128,384,l),
(128,0,l)
);
}
);
width = 448;
}
);
unicode = 110;
},
{
glyphname = o;
layers = (
{
layerId = "66415128-06F0-485A-B2B6-660C25DA677B";
shapes = (
{
closed = 1;
nodes = (
(256,64,l),
(256,384,l),
(128,384,l),
(128,64,l)
);
},
{
closed = 1;
nodes = (
(64,0,l),
(64,64,l),
(0,64,l),
(0,384,l),
(64,384,l),
(64,448,l),
(320,448,l),
(320,384,l),
(384,384,l),
(384,64,l),
(320,64,l),
(320,0,l)
);
}
);
width = 448;
}
);
unicode = 111;
},
{
glyphname = p;
layers = (
{
layerId = "66415128-06F0-485A-B2B6-660C25DA677B";
shapes = (
{
closed = 1;
nodes = (
(256,64,l),
(256,384,l),
(128,384,l),
(128,64,l)
);
},
{
closed = 1;
nodes = (
(0,-192,l),
(0,448,l),
(320,448,l),
(320,384,l),
(384,384,l),
(384,64,l),
(320,64,l),
(320,0,l),
(128,0,l),
(128,-192,l)
);
}
);
width = 448;
}
);
unicode = 112;
},
{
glyphname = q;
layers = (
{
layerId = "66415128-06F0-485A-B2B6-660C25DA677B";
shapes = (
{
closed = 1;
nodes = (
(256,64,l),
(256,384,l),
(128,384,l),
(128,64,l)
);
},
{
closed = 1;
nodes = (
(256,-192,l),
(256,0,l),
(64,0,l),
(64,64,l),
(0,64,l),
(0,384,l),
(64,384,l),
(64,448,l),
(384,448,l),
(384,-192,l)
);
}
);
width = 448;
}
);
unicode = 113;
},
{
glyphname = r;
layers = (
{
layerId = "66415128-06F0-485A-B2B6-660C25DA677B";
shapes = (
{
closed = 1;
nodes = (
(0,0,l),
(0,448,l),
(320,448,l),
(320,384,l),
(384,384,l),
(384,256,l),
(256,256,l),
(256,384,l),
(128,384,l),
(128,0,l)
);
}
);
width = 448;
}
);
unicode = 114;
},
{
glyphname = s;
layers = (
{
layerId = "66415128-06F0-485A-B2B6-660C25DA677B";
shapes = (
{
closed = 1;
nodes = (
(64,0,l),
(64,64,l),
(0,64,l),
(0,128,l),
(128,128,l),
(128,64,l),
(256,64,l),
(256,192,l),
(64,192,l),
(64,256,l),
(0,256,l),
(0,384,l),
(64,384,l),
(64,448,l),
(320,448,l),
(320,384,l),
(384,384,l),
(384,320,l),
(256,320,l),
(256,384,l),
(128,384,l),
(128,256,l),
(320,256,l),
(320,192,l),
(384,192,l),
(384,64,l),
(320,64,l),
(320,0,l)
);
}
);
width = 448;
}
);
unicode = 115;
},
{
glyphname = t;
layers = (
{
layerId = "66415128-06F0-485A-B2B6-660C25DA677B";
shapes = (
{
closed = 1;
nodes = (
(192,0,l),
(192,64,l),
(128,64,l),
(128,384,l),
(0,384,l),
(0,448,l),
(128,448,l),
(128,576,l),
(256,576,l),
(256,448,l),
(384,448,l),
(384,384,l),
(256,384,l),
(256,64,l),
(384,64,l),
(384,0,l)
);
}
);
width = 448;
}
);
unicode = 116;
},
{
glyphname = u;
layers = (
{
layerId = "66415128-06F0-485A-B2B6-660C25DA677B";
shapes = (
{
closed = 1;
nodes = (
(64,0,l),
(64,64,l),
(0,64,l),
(0,448,l),
(128,448,l),
(128,64,l),
(256,64,l),
(256,448,l),
(384,448,l),
(384,0,l)
);
}
);
width = 448;
}
);
unicode = 117;
},
{
glyphname = v;
layers = (
{
layerId = "66415128-06F0-485A-B2B6-660C25DA677B";
shapes = (
{
closed = 1;
nodes = (
(128,0,l),
(128,128,l),
(64,128,l),
(64,256,l),
(0,256,l),
(0,448,l),
(128,448,l),
(128,256,l),
(256,256,l),
(256,448,l),
(384,448,l),
(384,256,l),
(320,256,l),
(320,128,l),
(256,128,l),
(256,0,l)
);
}
);
width = 448;
}
);
unicode = 118;
},
{
glyphname = w;
layers = (
{
layerId = "66415128-06F0-485A-B2B6-660C25DA677B";
shapes = (
{
closed = 1;
nodes = (
(192,128,l),
(192,384,l),
(256,384,l),
(256,128,l)
);
},
{
closed = 1;
nodes = (
(64,0,l),
(64,128,l),
(0,128,l),
(0,448,l),
(128,448,l),
(128,128,l),
(192,128,l),
(192,0,l)
);
},
{
closed = 1;
nodes = (
(256,0,l),
(256,128,l),
(320,128,l),
(320,448,l),
(448,448,l),
(448,128,l),
(384,128,l),
(384,0,l)
);
}
);
width = 512;
}
);
unicode = 119;
},
{
glyphname = x;
layers = (
{
layerId = "66415128-06F0-485A-B2B6-660C25DA677B";
shapes = (
{
closed = 1;
nodes = (
(0,0,l),
(0,128,l),
(64,128,l),
(64,192,l),
(128,192,l),
(128,256,l),
(64,256,l),
(64,320,l),
(0,320,l),
(0,448,l),
(128,448,l),
(128,320,l),
(256,320,l),
(256,448,l),
(384,448,l),
(384,320,l),
(320,320,l),
(320,256,l),
(256,256,l),
(256,192,l),
(320,192,l),
(320,128,l),
(384,128,l),
(384,0,l),
(256,0,l),
(256,128,l),
(128,128,l),
(128,0,l)
);
}
);
width = 448;
}
);
unicode = 120;
},
{
glyphname = y;
layers = (
{
layerId = "66415128-06F0-485A-B2B6-660C25DA677B";
shapes = (
{
closed = 1;
nodes = (
(64,-192,l),
(64,-128,l),
(0,-128,l),
(0,-64,l),
(128,-64,l),
(128,-128,l),
(256,-128,l),
(256,0,l),
(64,0,l),
(64,64,l),
(0,64,l),
(0,448,l),
(128,448,l),
(128,64,l),
(256,64,l),
(256,448,l),
(384,448,l),
(384,-128,l),
(320,-128,l),
(320,-192,l)
);
}
);
width = 448;
}
);
unicode = 121;
},
{
glyphname = z;
layers = (
{
layerId = "66415128-06F0-485A-B2B6-660C25DA677B";
shapes = (
{
closed = 1;
nodes = (
(0,0,l),
(0,128,l),
(64,128,l),
(64,192,l),
(128,192,l),
(128,256,l),
(192,256,l),
(192,320,l),
(256,320,l),
(256,384,l),
(0,384,l),
(0,448,l),
(384,448,l),
(384,320,l),
(320,320,l),
(320,256,l),
(256,256,l),
(256,192,l),
(192,192,l),
(192,128,l),
(128,128,l),
(128,64,l),
(384,64,l),
(384,0,l)
);
}
);
width = 448;
}
);
unicode = 122;
},
{
glyphname = braceleft;
layers = (
{
layerId = "66415128-06F0-485A-B2B6-660C25DA677B";
shapes = (
{
closed = 1;
nodes = (
(128,0,l),
(128,64,l),
(64,64,l),
(64,256,l),
(0,256,l),
(0,320,l),
(64,320,l),
(64,512,l),
(128,512,l),
(128,576,l),
(320,576,l),
(320,512,l),
(192,512,l),
(192,320,l),
(128,320,l),
(128,256,l),
(192,256,l),
(192,64,l),
(320,64,l),
(320,0,l)
);
}
);
width = 384;
}
);
unicode = 123;
},
{
glyphname = bar;
layers = (
{
layerId = "66415128-06F0-485A-B2B6-660C25DA677B";
shapes = (
{
closed = 1;
nodes = (
(0,0,l),
(0,576,l),
(128,576,l),
(128,0,l)
);
}
);
width = 192;
}
);
unicode = 124;
},
{
glyphname = braceright;
layers = (
{
layerId = "66415128-06F0-485A-B2B6-660C25DA677B";
shapes = (
{
closed = 1;
nodes = (
(0,0,l),
(0,64,l),
(128,64,l),
(128,256,l),
(192,256,l),
(192,320,l),
(128,320,l),
(128,512,l),
(0,512,l),
(0,576,l),
(192,576,l),
(192,512,l),
(256,512,l),
(256,320,l),
(320,320,l),
(320,256,l),
(256,256,l),
(256,64,l),
(192,64,l),
(192,0,l)
);
}
);
width = 384;
}
);
unicode = 125;
},
{
glyphname = asciitilde;
layers = (
{
layerId = "66415128-06F0-485A-B2B6-660C25DA677B";
shapes = (
{
closed = 1;
nodes = (
(0,256,l),
(0,320,l),
(64,320,l),
(64,384,l),
(256,384,l),
(256,320,l),
(320,320,l),
(320,384,l),
(448,384,l),
(448,320,l),
(384,320,l),
(384,256,l),
(192,256,l),
(192,320,l),
(128,320,l),
(128,256,l)
);
}
);
width = 512;
}
);
unicode = 126;
},
{
glyphname = exclamdown;
layers = (
{
layerId = "66415128-06F0-485A-B2B6-660C25DA677B";
shapes = (
{
closed = 1;
nodes = (
(64,0,l),
(64,64,l),
(0,64,l),
(0,192,l),
(64,192,l),
(64,384,l),
(192,384,l),
(192,192,l),
(256,192,l),
(256,64,l),
(192,64,l),
(192,0,l)
);
},
{
closed = 1;
nodes = (
(64,448,l),
(64,576,l),
(192,576,l),
(192,448,l)
);
}
);
width = 320;
}
);
unicode = 161;
},
{
glyphname = cent;
layers = (
{
layerId = "66415128-06F0-485A-B2B6-660C25DA677B";
shapes = (
{
closed = 1;
nodes = (
(128,0,l),
(128,128,l),
(64,128,l),
(64,192,l),
(0,192,l),
(0,384,l),
(64,384,l),
(64,448,l),
(128,448,l),
(128,576,l),
(256,576,l),
(256,448,l),
(320,448,l),
(320,384,l),
(384,384,l),
(384,320,l),
(256,320,l),
(256,384,l),
(128,384,l),
(128,192,l),
(256,192,l),
(256,256,l),
(384,256,l),
(384,192,l),
(320,192,l),
(320,128,l),
(256,128,l),
(256,0,l)
);
}
);
width = 448;
}
);
unicode = 162;
},
{
glyphname = sterling;
layers = (
{
layerId = "66415128-06F0-485A-B2B6-660C25DA677B";
shapes = (
{
closed = 1;
nodes = (
(0,0,l),
(0,64,l),
(64,64,l),
(64,256,l),
(0,256,l),
(0,320,l),
(64,320,l),
(64,512,l),
(128,512,l),
(128,576,l),
(384,576,l),
(384,512,l),
(448,512,l),
(448,384,l),
(320,384,l),
(320,512,l),
(192,512,l),
(192,320,l),
(320,320,l),
(320,256,l),
(192,256,l),
(192,64,l),
(320,64,l),
(320,128,l),
(448,128,l),
(448,64,l),
(384,64,l),
(384,0,l)
);
}
);
width = 512;
}
);
unicode = 163;
},
{
glyphname = currency;
layers = (
{
layerId = "66415128-06F0-485A-B2B6-660C25DA677B";
shapes = (
{
closed = 1;
nodes = (
(256,192,l),
(256,384,l),
(128,384,l),
(128,192,l)
);
},
{
closed = 1;
nodes = (
(0,64,l),
(0,128,l),
(64,128,l),
(64,192,l),
(0,192,l),
(0,384,l),
(64,384,l),
(64,448,l),
(0,448,l),
(0,512,l),
(128,512,l),
(128,448,l),
(256,448,l),
(256,512,l),
(384,512,l),
(384,448,l),
(320,448,l),
(320,384,l),
(384,384,l),
(384,192,l),
(320,192,l),
(320,128,l),
(384,128,l),
(384,64,l),
(256,64,l),
(256,128,l),
(128,128,l),
(128,64,l)
);
}
);
width = 448;
}
);
unicode = 164;
},
{
glyphname = yen;
layers = (
{
layerId = "66415128-06F0-485A-B2B6-660C25DA677B";
shapes = (
{
closed = 1;
nodes = (
(128,0,l),
(128,64,l),
(0,64,l),
(0,128,l),
(128,128,l),
(128,192,l),
(0,192,l),
(0,256,l),
(64,256,l),
(64,320,l),
(0,320,l),
(0,576,l),
(128,576,l),
(128,320,l),
(256,320,l),
(256,576,l),
(384,576,l),
(384,320,l),
(320,320,l),
(320,256,l),
(384,256,l),
(384,192,l),
(256,192,l),
(256,128,l),
(384,128,l),
(384,64,l),
(256,64,l),
(256,0,l)
);
}
);
width = 448;
}
);
unicode = 165;
},
{
glyphname = brokenbar;
layers = (
{
layerId = "66415128-06F0-485A-B2B6-660C25DA677B";
shapes = (
{
closed = 1;
nodes = (
(0,0,l),
(0,256,l),
(128,256,l),
(128,0,l)
);
},
{
closed = 1;
nodes = (
(0,320,l),
(0,576,l),
(128,576,l),
(128,320,l)
);
}
);
width = 192;
}
);
unicode = 166;
},
{
glyphname = section;
layers = (
{
layerId = "66415128-06F0-485A-B2B6-660C25DA677B";
shapes = (
{
closed = 1;
nodes = (
(256,192,l),
(256,320,l),
(128,320,l),
(128,192,l)
);
},
{
closed = 1;
nodes = (
(64,-64,l),
(64,0,l),
(0,0,l),
(0,64,l),
(128,64,l),
(128,0,l),
(256,0,l),
(256,128,l),
(64,128,l),
(64,192,l),
(0,192,l),
(0,320,l),
(64,320,l),
(64,384,l),
(0,384,l),
(0,512,l),
(64,512,l),
(64,576,l),
(320,576,l),
(320,512,l),
(384,512,l),
(384,448,l),
(256,448,l),
(256,512,l),
(128,512,l),
(128,384,l),
(320,384,l),
(320,320,l),
(384,320,l),
(384,192,l),
(320,192,l),
(320,128,l),
(384,128,l),
(384,0,l),
(320,0,l),
(320,-64,l)
);
}
);
width = 448;
}
);
unicode = 167;
},
{
glyphname = dieresis;
layers = (
{
layerId = "66415128-06F0-485A-B2B6-660C25DA677B";
shapes = (
{
closed = 1;
nodes = (
(0,512,l),
(0,640,l),
(128,640,l),
(128,512,l)
);
},
{
closed = 1;
nodes = (
(256,512,l),
(256,640,l),
(384,640,l),
(384,512,l)
);
}
);
width = 448;
}
);
unicode = 168;
},
{
glyphname = copyright;
layers = (
{
layerId = "66415128-06F0-485A-B2B6-660C25DA677B";
shapes = (
{
closed = 1;
nodes = (
(128,0,l),
(128,64,l),
(320,64,l),
(320,0,l)
);
},
{
closed = 1;
nodes = (
(64,64,l),
(64,128,l),
(128,128,l),
(128,64,l)
);
},
{
closed = 1;
nodes = (
(320,64,l),
(320,128,l),
(384,128,l),
(384,64,l)
);
},
{
closed = 1;
nodes = (
(192,128,l),
(192,192,l),
(320,192,l),
(320,128,l)
);
},
{
closed = 1;
nodes = (
(128,192,l),
(128,384,l),
(192,384,l),
(192,192,l)
);
},
{
closed = 1;
nodes = (
(0,128,l),
(0,448,l),
(64,448,l),
(64,128,l)
);
},
{
closed = 1;
nodes = (
(192,384,l),
(192,448,l),
(320,448,l),
(320,384,l)
);
},
{
closed = 1;
nodes = (
(384,128,l),
(384,448,l),
(448,448,l),
(448,128,l)
);
},
{
closed = 1;
nodes = (
(64,448,l),
(64,512,l),
(128,512,l),
(128,448,l)
);
},
{
closed = 1;
nodes = (
(320,448,l),
(320,512,l),
(384,512,l),
(384,448,l)
);
},
{
closed = 1;
nodes = (
(128,512,l),
(128,576,l),
(320,576,l),
(320,512,l)
);
}
);
width = 512;
}
);
unicode = 169;
},
{
glyphname = ordfeminine;
layers = (
{
layerId = "66415128-06F0-485A-B2B6-660C25DA677B";
shapes = (
{
closed = 1;
nodes = (
(192,384,l),
(192,448,l),
(128,448,l),
(128,384,l)
);
},
{
closed = 1;
nodes = (
(64,320,l),
(64,384,l),
(0,384,l),
(0,448,l),
(64,448,l),
(64,512,l),
(192,512,l),
(192,576,l),
(64,576,l),
(64,640,l),
(256,640,l),
(256,576,l),
(320,576,l),
(320,320,l)
);
}
);
width = 384;
}
);
unicode = 170;
},
{
glyphname = guillemotleft;
layers = (
{
layerId = "66415128-06F0-485A-B2B6-660C25DA677B";
shapes = (
{
closed = 1;
nodes = (
(128,128,l),
(128,192,l),
(64,192,l),
(64,256,l),
(0,256,l),
(0,320,l),
(64,320,l),
(64,384,l),
(128,384,l),
(128,448,l),
(256,448,l),
(256,384,l),
(192,384,l),
(192,320,l),
(128,320,l),
(128,256,l),
(192,256,l),
(192,192,l),
(256,192,l),
(256,128,l)
);
},
{
closed = 1;
nodes = (
(320,128,l),
(320,192,l),
(256,192,l),
(256,256,l),
(192,256,l),
(192,320,l),
(256,320,l),
(256,384,l),
(320,384,l),
(320,448,l),
(448,448,l),
(448,384,l),
(384,384,l),
(384,320,l),
(320,320,l),
(320,256,l),
(384,256,l),
(384,192,l),
(448,192,l),
(448,128,l)
);
}
);
width = 512;
}
);
unicode = 171;
},
{
glyphname = logicalnot;
layers = (
{
layerId = "66415128-06F0-485A-B2B6-660C25DA677B";
shapes = (
{
closed = 1;
nodes = (
(256,128,l),
(256,256,l),
(0,256,l),
(0,320,l),
(384,320,l),
(384,128,l)
);
}
);
width = 448;
}
);
unicode = 172;
},
{
glyphname = uni00AD;
layers = (
{
layerId = "66415128-06F0-485A-B2B6-660C25DA677B";
shapes = (
{
closed = 1;
nodes = (
(0,256,l),
(0,320,l),
(384,320,l),
(384,256,l)
);
}
);
width = 448;
}
);
unicode = 173;
},
{
glyphname = registered;
layers = (
{
layerId = "66415128-06F0-485A-B2B6-660C25DA677B";
shapes = (
{
closed = 1;
nodes = (
(128,0,l),
(128,64,l),
(320,64,l),
(320,0,l)
);
},
{
closed = 1;
nodes = (
(64,64,l),
(64,128,l),
(128,128,l),
(128,64,l)
);
},
{
closed = 1;
nodes = (
(320,64,l),
(320,128,l),
(384,128,l),
(384,64,l)
);
},
{
closed = 1;
nodes = (
(256,128,l),
(256,256,l),
(320,256,l),
(320,128,l)
);
},
{
closed = 1;
nodes = (
(256,320,l),
(256,384,l),
(320,384,l),
(320,320,l)
);
},
{
closed = 1;
nodes = (
(0,128,l),
(0,448,l),
(64,448,l),
(64,128,l)
);
},
{
closed = 1;
nodes = (
(128,128,l),
(128,448,l),
(256,448,l),
(256,384,l),
(192,384,l),
(192,320,l),
(256,320,l),
(256,256,l),
(192,256,l),
(192,128,l)
);
},
{
closed = 1;
nodes = (
(384,128,l),
(384,448,l),
(448,448,l),
(448,128,l)
);
},
{
closed = 1;
nodes = (
(64,448,l),
(64,512,l),
(128,512,l),
(128,448,l)
);
},
{
closed = 1;
nodes = (
(320,448,l),
(320,512,l),
(384,512,l),
(384,448,l)
);
},
{
closed = 1;
nodes = (
(128,512,l),
(128,576,l),
(320,576,l),
(320,512,l)
);
}
);
width = 512;
}
);
unicode = 174;
},
{
glyphname = degree;
layers = (
{
layerId = "66415128-06F0-485A-B2B6-660C25DA677B";
shapes = (
{
closed = 1;
nodes = (
(64,320,l),
(64,384,l),
(192,384,l),
(192,320,l)
);
},
{
closed = 1;
nodes = (
(0,384,l),
(0,512,l),
(64,512,l),
(64,384,l)
);
},
{
closed = 1;
nodes = (
(192,384,l),
(192,512,l),
(256,512,l),
(256,384,l)
);
},
{
closed = 1;
nodes = (
(64,512,l),
(64,576,l),
(192,576,l),
(192,512,l)
);
}
);
width = 320;
}
);
unicode = 176;
},
{
glyphname = plusminus;
layers = (
{
layerId = "66415128-06F0-485A-B2B6-660C25DA677B";
shapes = (
{
closed = 1;
nodes = (
(0,0,l),
(0,64,l),
(384,64,l),
(384,0,l)
);
},
{
closed = 1;
nodes = (
(128,128,l),
(128,256,l),
(0,256,l),
(0,320,l),
(128,320,l),
(128,448,l),
(256,448,l),
(256,320,l),
(384,320,l),
(384,256,l),
(256,256,l),
(256,128,l)
);
}
);
width = 448;
}
);
unicode = 177;
},
{
glyphname = twosuperior;
layers = (
{
layerId = "66415128-06F0-485A-B2B6-660C25DA677B";
shapes = (
{
closed = 1;
nodes = (
(0,320,l),
(0,448,l),
(64,448,l),
(64,512,l),
(192,512,l),
(192,576,l),
(0,576,l),
(0,640,l),
(256,640,l),
(256,576,l),
(320,576,l),
(320,512,l),
(256,512,l),
(256,448,l),
(128,448,l),
(128,384,l),
(320,384,l),
(320,320,l)
);
}
);
width = 384;
}
);
unicode = 178;
},
{
glyphname = threesuperior;
layers = (
{
layerId = "66415128-06F0-485A-B2B6-660C25DA677B";
shapes = (
{
closed = 1;
nodes = (
(0,320,l),
(0,384,l),
(192,384,l),
(192,448,l),
(64,448,l),
(64,512,l),
(192,512,l),
(192,576,l),
(0,576,l),
(0,640,l),
(256,640,l),
(256,576,l),
(320,576,l),
(320,512,l),
(256,512,l),
(256,448,l),
(320,448,l),
(320,384,l),
(256,384,l),
(256,320,l)
);
}
);
width = 384;
}
);
unicode = 179;
},
{
glyphname = acute;
layers = (
{
layerId = "66415128-06F0-485A-B2B6-660C25DA677B";
shapes = (
{
closed = 1;
nodes = (
(0,512,l),
(0,576,l),
(64,576,l),
(64,640,l),
(192,640,l),
(192,576,l),
(128,576,l),
(128,512,l)
);
}
);
width = 256;
}
);
unicode = 180;
},
{
glyphname = uni00B5;
layers = (
{
layerId = "66415128-06F0-485A-B2B6-660C25DA677B";
shapes = (
{
closed = 1;
nodes = (
(0,-192,l),
(0,448,l),
(128,448,l),
(128,64,l),
(256,64,l),
(256,448,l),
(384,448,l),
(384,64,l),
(320,64,l),
(320,0,l),
(128,0,l),
(128,-192,l)
);
}
);
width = 448;
}
);
unicode = 181;
},
{
glyphname = paragraph;
layers = (
{
layerId = "66415128-06F0-485A-B2B6-660C25DA677B";
shapes = (
{
closed = 1;
nodes = (
(128,0,l),
(128,256,l),
(64,256,l),
(64,320,l),
(0,320,l),
(0,512,l),
(64,512,l),
(64,576,l),
(448,576,l),
(448,0,l),
(320,0,l),
(320,512,l),
(256,512,l),
(256,0,l)
);
}
);
width = 512;
}
);
unicode = 182;
},
{
glyphname = periodcentered;
layers = (
{
layerId = "66415128-06F0-485A-B2B6-660C25DA677B";
shapes = (
{
closed = 1;
nodes = (
(0,256,l),
(0,384,l),
(128,384,l),
(128,256,l)
);
}
);
width = 192;
}
);
unicode = 183;
},
{
glyphname = cedilla;
layers = (
{
layerId = "66415128-06F0-485A-B2B6-660C25DA677B";
shapes = (
{
closed = 1;
nodes = (
(0,-128,l),
(0,-64,l),
(64,-64,l),
(64,0,l),
(192,0,l),
(192,-64,l),
(128,-64,l),
(128,-128,l)
);
}
);
width = 256;
}
);
unicode = 184;
},
{
glyphname = onesuperior;
layers = (
{
layerId = "66415128-06F0-485A-B2B6-660C25DA677B";
shapes = (
{
closed = 1;
nodes = (
(0,320,l),
(0,384,l),
(64,384,l),
(64,512,l),
(0,512,l),
(0,576,l),
(64,576,l),
(64,640,l),
(192,640,l),
(192,384,l),
(256,384,l),
(256,320,l)
);
}
);
width = 320;
}
);
unicode = 185;
},
{
glyphname = ordmasculine;
layers = (
{
layerId = "66415128-06F0-485A-B2B6-660C25DA677B";
shapes = (
{
closed = 1;
nodes = (
(192,384,l),
(192,576,l),
(128,576,l),
(128,384,l)
);
},
{
closed = 1;
nodes = (
(64,320,l),
(64,384,l),
(0,384,l),
(0,576,l),
(64,576,l),
(64,640,l),
(256,640,l),
(256,576,l),
(320,576,l),
(320,384,l),
(256,384,l),
(256,320,l)
);
}
);
width = 384;
}
);
unicode = 186;
},
{
glyphname = guillemotright;
layers = (
{
layerId = "66415128-06F0-485A-B2B6-660C25DA677B";
shapes = (
{
closed = 1;
nodes = (
(0,128,l),
(0,192,l),
(64,192,l),
(64,256,l),
(128,256,l),
(128,320,l),
(64,320,l),
(64,384,l),
(0,384,l),
(0,448,l),
(128,448,l),
(128,384,l),
(192,384,l),
(192,320,l),
(256,320,l),
(256,256,l),
(192,256,l),
(192,192,l),
(128,192,l),
(128,128,l)
);
},
{
closed = 1;
nodes = (
(192,128,l),
(192,192,l),
(256,192,l),
(256,256,l),
(320,256,l),
(320,320,l),
(256,320,l),
(256,384,l),
(192,384,l),
(192,448,l),
(320,448,l),
(320,384,l),
(384,384,l),
(384,320,l),
(448,320,l),
(448,256,l),
(384,256,l),
(384,192,l),
(320,192,l),
(320,128,l)
);
}
);
width = 512;
}
);
unicode = 187;
},
{
glyphname = onequarter;
layers = (
{
layerId = "66415128-06F0-485A-B2B6-660C25DA677B";
shapes = (
{
closed = 1;
nodes = (
(0,64,l),
(0,128,l),
(64,128,l),
(64,64,l)
);
},
{
closed = 1;
nodes = (
(64,128,l),
(64,192,l),
(128,192,l),
(128,128,l)
);
},
{
closed = 1;
nodes = (
(384,0,l),
(384,64,l),
(256,64,l),
(256,256,l),
(320,256,l),
(320,128,l),
(384,128,l),
(384,320,l),
(448,320,l),
(448,0,l)
);
},
{
closed = 1;
nodes = (
(256,320,l),
(256,384,l),
(320,384,l),
(320,320,l)
);
},
{
closed = 1;
nodes = (
(320,384,l),
(320,448,l),
(384,448,l),
(384,384,l)
);
},
{
closed = 1;
nodes = (
(384,448,l),
(384,512,l),
(448,512,l),
(448,448,l)
);
},
{
closed = 1;
nodes = (
(128,192,l),
(128,256,l),
(0,256,l),
(0,320,l),
(64,320,l),
(64,512,l),
(0,512,l),
(0,576,l),
(128,576,l),
(128,320,l),
(256,320,l),
(256,256,l),
(192,256,l),
(192,192,l)
);
}
);
width = 512;
}
);
unicode = 188;
},
{
glyphname = onehalf;
layers = (
{
layerId = "66415128-06F0-485A-B2B6-660C25DA677B";
shapes = (
{
closed = 1;
nodes = (
(0,64,l),
(0,128,l),
(64,128,l),
(64,64,l)
);
},
{
closed = 1;
nodes = (
(256,0,l),
(256,128,l),
(320,128,l),
(320,64,l),
(448,64,l),
(448,0,l)
);
},
{
closed = 1;
nodes = (
(64,128,l),
(64,192,l),
(128,192,l),
(128,128,l)
);
},
{
closed = 1;
nodes = (
(320,128,l),
(320,192,l),
(384,192,l),
(384,128,l)
);
},
{
closed = 1;
nodes = (
(384,192,l),
(384,256,l),
(448,256,l),
(448,192,l)
);
},
{
closed = 1;
nodes = (
(320,384,l),
(320,448,l),
(384,448,l),
(384,384,l)
);
},
{
closed = 1;
nodes = (
(384,448,l),
(384,512,l),
(448,512,l),
(448,448,l)
);
},
{
closed = 1;
nodes = (
(128,192,l),
(128,256,l),
(0,256,l),
(0,320,l),
(64,320,l),
(64,512,l),
(0,512,l),
(0,576,l),
(128,576,l),
(128,320,l),
(256,320,l),
(256,384,l),
(320,384,l),
(320,320,l),
(384,320,l),
(384,256,l),
(192,256,l),
(192,192,l)
);
}
);
width = 512;
}
);
unicode = 189;
},
{
glyphname = threequarters;
layers = (
{
layerId = "66415128-06F0-485A-B2B6-660C25DA677B";
shapes = (
{
closed = 1;
nodes = (
(0,64,l),
(0,128,l),
(64,128,l),
(64,64,l)
);
},
{
closed = 1;
nodes = (
(64,128,l),
(64,192,l),
(128,192,l),
(128,128,l)
);
},
{
closed = 1;
nodes = (
(128,192,l),
(128,256,l),
(192,256,l),
(192,192,l)
);
},
{
closed = 1;
nodes = (
(0,256,l),
(0,320,l),
(128,320,l),
(128,256,l)
);
},
{
closed = 1;
nodes = (
(192,256,l),
(192,320,l),
(256,320,l),
(256,256,l)
);
},
{
closed = 1;
nodes = (
(384,0,l),
(384,64,l),
(256,64,l),
(256,256,l),
(320,256,l),
(320,128,l),
(384,128,l),
(384,320,l),
(448,320,l),
(448,0,l)
);
},
{
closed = 1;
nodes = (
(128,320,l),
(128,384,l),
(192,384,l),
(192,320,l)
);
},
{
closed = 1;
nodes = (
(256,320,l),
(256,384,l),
(320,384,l),
(320,320,l)
);
},
{
closed = 1;
nodes = (
(64,384,l),
(64,448,l),
(128,448,l),
(128,384,l)
);
},
{
closed = 1;
nodes = (
(320,384,l),
(320,448,l),
(384,448,l),
(384,384,l)
);
},
{
closed = 1;
nodes = (
(128,448,l),
(128,512,l),
(192,512,l),
(192,448,l)
);
},
{
closed = 1;
nodes = (
(384,448,l),
(384,512,l),
(448,512,l),
(448,448,l)
);
},
{
closed = 1;
nodes = (
(0,512,l),
(0,576,l),
(128,576,l),
(128,512,l)
);
}
);
width = 512;
}
);
unicode = 190;
},
{
glyphname = questiondown;
layers = (
{
layerId = "66415128-06F0-485A-B2B6-660C25DA677B";
shapes = (
{
closed = 1;
nodes = (
(64,0,l),
(64,64,l),
(0,64,l),
(0,192,l),
(64,192,l),
(64,256,l),
(128,256,l),
(128,384,l),
(256,384,l),
(256,256,l),
(192,256,l),
(192,192,l),
(128,192,l),
(128,64,l),
(256,64,l),
(256,192,l),
(384,192,l),
(384,64,l),
(320,64,l),
(320,0,l)
);
},
{
closed = 1;
nodes = (
(128,448,l),
(128,576,l),
(256,576,l),
(256,448,l)
);
}
);
width = 448;
}
);
unicode = 191;
},
{
glyphname = Agrave;
layers = (
{
layerId = "66415128-06F0-485A-B2B6-660C25DA677B";
shapes = (
{
closed = 1;
nodes = (
(256,256,l),
(256,512,l),
(128,512,l),
(128,256,l)
);
},
{
closed = 1;
nodes = (
(0,0,l),
(0,512,l),
(64,512,l),
(64,576,l),
(320,576,l),
(320,512,l),
(384,512,l),
(384,0,l),
(256,0,l),
(256,192,l),
(128,192,l),
(128,0,l)
);
},
{
closed = 1;
nodes = (
(128,640,l),
(128,704,l),
(64,704,l),
(64,768,l),
(192,768,l),
(192,704,l),
(256,704,l),
(256,640,l)
);
}
);
width = 448;
}
);
unicode = 192;
},
{
glyphname = Aacute;
layers = (
{
layerId = "66415128-06F0-485A-B2B6-660C25DA677B";
shapes = (
{
closed = 1;
nodes = (
(256,256,l),
(256,512,l),
(128,512,l),
(128,256,l)
);
},
{
closed = 1;
nodes = (
(0,0,l),
(0,512,l),
(64,512,l),
(64,576,l),
(320,576,l),
(320,512,l),
(384,512,l),
(384,0,l),
(256,0,l),
(256,192,l),
(128,192,l),
(128,0,l)
);
},
{
closed = 1;
nodes = (
(128,640,l),
(128,704,l),
(192,704,l),
(192,768,l),
(320,768,l),
(320,704,l),
(256,704,l),
(256,640,l)
);
}
);
width = 448;
}
);
unicode = 193;
},
{
glyphname = Acircumflex;
layers = (
{
layerId = "66415128-06F0-485A-B2B6-660C25DA677B";
shapes = (
{
closed = 1;
nodes = (
(256,256,l),
(256,512,l),
(128,512,l),
(128,256,l)
);
},
{
closed = 1;
nodes = (
(0,0,l),
(0,512,l),
(64,512,l),
(64,576,l),
(320,576,l),
(320,512,l),
(384,512,l),
(384,0,l),
(256,0,l),
(256,192,l),
(128,192,l),
(128,0,l)
);
},
{
closed = 1;
nodes = (
(0,640,l),
(0,704,l),
(64,704,l),
(64,768,l),
(128,768,l),
(128,832,l),
(256,832,l),
(256,768,l),
(320,768,l),
(320,704,l),
(384,704,l),
(384,640,l),
(256,640,l),
(256,704,l),
(128,704,l),
(128,640,l)
);
}
);
width = 448;
}
);
unicode = 194;
},
{
glyphname = Atilde;
layers = (
{
layerId = "66415128-06F0-485A-B2B6-660C25DA677B";
shapes = (
{
closed = 1;
nodes = (
(256,256,l),
(256,512,l),
(128,512,l),
(128,256,l)
);
},
{
closed = 1;
nodes = (
(0,0,l),
(0,512,l),
(64,512,l),
(64,576,l),
(320,576,l),
(320,512,l),
(384,512,l),
(384,0,l),
(256,0,l),
(256,192,l),
(128,192,l),
(128,0,l)
);
},
{
closed = 1;
nodes = (
(0,640,l),
(0,704,l),
(64,704,l),
(64,768,l),
(256,768,l),
(256,704,l),
(320,704,l),
(320,768,l),
(448,768,l),
(448,704,l),
(384,704,l),
(384,640,l),
(192,640,l),
(192,704,l),
(128,704,l),
(128,640,l)
);
}
);
width = 512;
}
);
unicode = 195;
},
{
glyphname = Adieresis;
layers = (
{
layerId = "66415128-06F0-485A-B2B6-660C25DA677B";
shapes = (
{
closed = 1;
nodes = (
(256,256,l),
(256,512,l),
(128,512,l),
(128,256,l)
);
},
{
closed = 1;
nodes = (
(0,0,l),
(0,512,l),
(64,512,l),
(64,576,l),
(320,576,l),
(320,512,l),
(384,512,l),
(384,0,l),
(256,0,l),
(256,192,l),
(128,192,l),
(128,0,l)
);
},
{
closed = 1;
nodes = (
(0,640,l),
(0,768,l),
(128,768,l),
(128,640,l)
);
},
{
closed = 1;
nodes = (
(256,640,l),
(256,768,l),
(384,768,l),
(384,640,l)
);
}
);
width = 448;
}
);
unicode = 196;
},
{
glyphname = Aring;
layers = (
{
layerId = "66415128-06F0-485A-B2B6-660C25DA677B";
shapes = (
{
closed = 1;
nodes = (
(256,256,l),
(256,512,l),
(128,512,l),
(128,256,l)
);
},
{
closed = 1;
nodes = (
(256,576,l),
(256,640,l),
(128,640,l),
(128,576,l)
);
},
{
closed = 1;
nodes = (
(0,0,l),
(0,512,l),
(64,512,l),
(64,576,l),
(0,576,l),
(0,640,l),
(64,640,l),
(64,704,l),
(320,704,l),
(320,640,l),
(384,640,l),
(384,576,l),
(320,576,l),
(320,512,l),
(384,512,l),
(384,0,l),
(256,0,l),
(256,192,l),
(128,192,l),
(128,0,l)
);
}
);
width = 448;
}
);
unicode = 197;
},
{
glyphname = AE;
layers = (
{
layerId = "66415128-06F0-485A-B2B6-660C25DA677B";
shapes = (
{
closed = 1;
nodes = (
(256,256,l),
(256,512,l),
(128,512,l),
(128,256,l)
);
},
{
closed = 1;
nodes = (
(0,0,l),
(0,512,l),
(64,512,l),
(64,576,l),
(512,576,l),
(512,512,l),
(384,512,l),
(384,320,l),
(512,320,l),
(512,256,l),
(384,256,l),
(384,64,l),
(512,64,l),
(512,0,l),
(256,0,l),
(256,192,l),
(128,192,l),
(128,0,l)
);
}
);
width = 576;
}
);
unicode = 198;
},
{
glyphname = Ccedilla;
layers = (
{
layerId = "66415128-06F0-485A-B2B6-660C25DA677B";
shapes = (
{
closed = 1;
nodes = (
(64,-128,l),
(64,-64,l),
(128,-64,l),
(128,0,l),
(64,0,l),
(64,64,l),
(0,64,l),
(0,512,l),
(64,512,l),
(64,576,l),
(320,576,l),
(320,512,l),
(384,512,l),
(384,384,l),
(256,384,l),
(256,512,l),
(128,512,l),
(128,64,l),
(256,64,l),
(256,192,l),
(384,192,l),
(384,64,l),
(320,64,l),
(320,0,l),
(256,0,l),
(256,-64,l),
(192,-64,l),
(192,-128,l)
);
}
);
width = 448;
}
);
unicode = 199;
},
{
glyphname = Egrave;
layers = (
{
layerId = "66415128-06F0-485A-B2B6-660C25DA677B";
shapes = (
{
closed = 1;
nodes = (
(0,0,l),
(0,576,l),
(384,576,l),
(384,512,l),
(128,512,l),
(128,320,l),
(320,320,l),
(320,256,l),
(128,256,l),
(128,64,l),
(384,64,l),
(384,0,l)
);
},
{
closed = 1;
nodes = (
(128,640,l),
(128,704,l),
(64,704,l),
(64,768,l),
(192,768,l),
(192,704,l),
(256,704,l),
(256,640,l)
);
}
);
width = 448;
}
);
unicode = 200;
},
{
glyphname = Eacute;
layers = (
{
layerId = "66415128-06F0-485A-B2B6-660C25DA677B";
shapes = (
{
closed = 1;
nodes = (
(0,0,l),
(0,576,l),
(384,576,l),
(384,512,l),
(128,512,l),
(128,320,l),
(320,320,l),
(320,256,l),
(128,256,l),
(128,64,l),
(384,64,l),
(384,0,l)
);
},
{
closed = 1;
nodes = (
(128,640,l),
(128,704,l),
(192,704,l),
(192,768,l),
(320,768,l),
(320,704,l),
(256,704,l),
(256,640,l)
);
}
);
width = 448;
}
);
unicode = 201;
},
{
glyphname = Ecircumflex;
layers = (
{
layerId = "66415128-06F0-485A-B2B6-660C25DA677B";
shapes = (
{
closed = 1;
nodes = (
(0,0,l),
(0,576,l),
(384,576,l),
(384,512,l),
(128,512,l),
(128,320,l),
(320,320,l),
(320,256,l),
(128,256,l),
(128,64,l),
(384,64,l),
(384,0,l)
);
},
{
closed = 1;
nodes = (
(0,640,l),
(0,704,l),
(64,704,l),
(64,768,l),
(128,768,l),
(128,832,l),
(256,832,l),
(256,768,l),
(320,768,l),
(320,704,l),
(384,704,l),
(384,640,l),
(256,640,l),
(256,704,l),
(128,704,l),
(128,640,l)
);
}
);
width = 448;
}
);
unicode = 202;
},
{
glyphname = Edieresis;
layers = (
{
layerId = "66415128-06F0-485A-B2B6-660C25DA677B";
shapes = (
{
closed = 1;
nodes = (
(0,0,l),
(0,576,l),
(384,576,l),
(384,512,l),
(128,512,l),
(128,320,l),
(320,320,l),
(320,256,l),
(128,256,l),
(128,64,l),
(384,64,l),
(384,0,l)
);
},
{
closed = 1;
nodes = (
(0,640,l),
(0,768,l),
(128,768,l),
(128,640,l)
);
},
{
closed = 1;
nodes = (
(256,640,l),
(256,768,l),
(384,768,l),
(384,640,l)
);
}
);
width = 448;
}
);
unicode = 203;
},
{
glyphname = Igrave;
layers = (
{
layerId = "66415128-06F0-485A-B2B6-660C25DA677B";
shapes = (
{
closed = 1;
nodes = (
(0,0,l),
(0,64,l),
(128,64,l),
(128,512,l),
(0,512,l),
(0,576,l),
(384,576,l),
(384,512,l),
(256,512,l),
(256,64,l),
(384,64,l),
(384,0,l)
);
},
{
closed = 1;
nodes = (
(128,640,l),
(128,704,l),
(64,704,l),
(64,768,l),
(192,768,l),
(192,704,l),
(256,704,l),
(256,640,l)
);
}
);
width = 448;
}
);
unicode = 204;
},
{
glyphname = Iacute;
layers = (
{
layerId = "66415128-06F0-485A-B2B6-660C25DA677B";
shapes = (
{
closed = 1;
nodes = (
(0,0,l),
(0,64,l),
(128,64,l),
(128,512,l),
(0,512,l),
(0,576,l),
(384,576,l),
(384,512,l),
(256,512,l),
(256,64,l),
(384,64,l),
(384,0,l)
);
},
{
closed = 1;
nodes = (
(128,640,l),
(128,704,l),
(192,704,l),
(192,768,l),
(320,768,l),
(320,704,l),
(256,704,l),
(256,640,l)
);
}
);
width = 448;
}
);
unicode = 205;
},
{
glyphname = Icircumflex;
layers = (
{
layerId = "66415128-06F0-485A-B2B6-660C25DA677B";
shapes = (
{
closed = 1;
nodes = (
(0,0,l),
(0,64,l),
(128,64,l),
(128,512,l),
(0,512,l),
(0,576,l),
(384,576,l),
(384,512,l),
(256,512,l),
(256,64,l),
(384,64,l),
(384,0,l)
);
},
{
closed = 1;
nodes = (
(0,640,l),
(0,704,l),
(64,704,l),
(64,768,l),
(128,768,l),
(128,832,l),
(256,832,l),
(256,768,l),
(320,768,l),
(320,704,l),
(384,704,l),
(384,640,l),
(256,640,l),
(256,704,l),
(128,704,l),
(128,640,l)
);
}
);
width = 448;
}
);
unicode = 206;
},
{
glyphname = Idieresis;
layers = (
{
layerId = "66415128-06F0-485A-B2B6-660C25DA677B";
shapes = (
{
closed = 1;
nodes = (
(0,0,l),
(0,64,l),
(128,64,l),
(128,512,l),
(0,512,l),
(0,576,l),
(384,576,l),
(384,512,l),
(256,512,l),
(256,64,l),
(384,64,l),
(384,0,l)
);
},
{
closed = 1;
nodes = (
(0,640,l),
(0,768,l),
(128,768,l),
(128,640,l)
);
},
{
closed = 1;
nodes = (
(256,640,l),
(256,768,l),
(384,768,l),
(384,640,l)
);
}
);
width = 448;
}
);
unicode = 207;
},
{
glyphname = Eth;
layers = (
{
layerId = "66415128-06F0-485A-B2B6-660C25DA677B";
shapes = (
{
closed = 1;
nodes = (
(320,64,l),
(320,512,l),
(192,512,l),
(192,320,l),
(256,320,l),
(256,256,l),
(192,256,l),
(192,64,l)
);
},
{
closed = 1;
nodes = (
(64,0,l),
(64,256,l),
(0,256,l),
(0,320,l),
(64,320,l),
(64,576,l),
(384,576,l),
(384,512,l),
(448,512,l),
(448,64,l),
(384,64,l),
(384,0,l)
);
}
);
width = 512;
}
);
unicode = 208;
},
{
glyphname = Ntilde;
layers = (
{
layerId = "66415128-06F0-485A-B2B6-660C25DA677B";
shapes = (
{
closed = 1;
nodes = (
(0,0,l),
(0,576,l),
(128,576,l),
(128,448,l),
(192,448,l),
(192,320,l),
(128,320,l),
(128,0,l)
);
},
{
closed = 1;
nodes = (
(256,0,l),
(256,192,l),
(192,192,l),
(192,320,l),
(256,320,l),
(256,576,l),
(384,576,l),
(384,0,l)
);
},
{
closed = 1;
nodes = (
(0,640,l),
(0,704,l),
(64,704,l),
(64,768,l),
(256,768,l),
(256,704,l),
(320,704,l),
(320,768,l),
(448,768,l),
(448,704,l),
(384,704,l),
(384,640,l),
(192,640,l),
(192,704,l),
(128,704,l),
(128,640,l)
);
}
);
width = 512;
}
);
unicode = 209;
},
{
glyphname = Ograve;
layers = (
{
layerId = "66415128-06F0-485A-B2B6-660C25DA677B";
shapes = (
{
closed = 1;
nodes = (
(256,64,l),
(256,512,l),
(128,512,l),
(128,64,l)
);
},
{
closed = 1;
nodes = (
(64,0,l),
(64,64,l),
(0,64,l),
(0,512,l),
(64,512,l),
(64,576,l),
(320,576,l),
(320,512,l),
(384,512,l),
(384,64,l),
(320,64,l),
(320,0,l)
);
},
{
closed = 1;
nodes = (
(128,640,l),
(128,704,l),
(64,704,l),
(64,768,l),
(192,768,l),
(192,704,l),
(256,704,l),
(256,640,l)
);
}
);
width = 448;
}
);
unicode = 210;
},
{
glyphname = Oacute;
layers = (
{
layerId = "66415128-06F0-485A-B2B6-660C25DA677B";
shapes = (
{
closed = 1;
nodes = (
(256,64,l),
(256,512,l),
(128,512,l),
(128,64,l)
);
},
{
closed = 1;
nodes = (
(64,0,l),
(64,64,l),
(0,64,l),
(0,512,l),
(64,512,l),
(64,576,l),
(320,576,l),
(320,512,l),
(384,512,l),
(384,64,l),
(320,64,l),
(320,0,l)
);
},
{
closed = 1;
nodes = (
(128,640,l),
(128,704,l),
(192,704,l),
(192,768,l),
(320,768,l),
(320,704,l),
(256,704,l),
(256,640,l)
);
}
);
width = 448;
}
);
unicode = 211;
},
{
glyphname = Ocircumflex;
layers = (
{
layerId = "66415128-06F0-485A-B2B6-660C25DA677B";
shapes = (
{
closed = 1;
nodes = (
(256,64,l),
(256,512,l),
(128,512,l),
(128,64,l)
);
},
{
closed = 1;
nodes = (
(64,0,l),
(64,64,l),
(0,64,l),
(0,512,l),
(64,512,l),
(64,576,l),
(320,576,l),
(320,512,l),
(384,512,l),
(384,64,l),
(320,64,l),
(320,0,l)
);
},
{
closed = 1;
nodes = (
(0,640,l),
(0,704,l),
(64,704,l),
(64,768,l),
(128,768,l),
(128,832,l),
(256,832,l),
(256,768,l),
(320,768,l),
(320,704,l),
(384,704,l),
(384,640,l),
(256,640,l),
(256,704,l),
(128,704,l),
(128,640,l)
);
}
);
width = 448;
}
);
unicode = 212;
},
{
glyphname = Otilde;
layers = (
{
layerId = "66415128-06F0-485A-B2B6-660C25DA677B";
shapes = (
{
closed = 1;
nodes = (
(256,64,l),
(256,512,l),
(128,512,l),
(128,64,l)
);
},
{
closed = 1;
nodes = (
(64,0,l),
(64,64,l),
(0,64,l),
(0,512,l),
(64,512,l),
(64,576,l),
(320,576,l),
(320,512,l),
(384,512,l),
(384,64,l),
(320,64,l),
(320,0,l)
);
},
{
closed = 1;
nodes = (
(0,640,l),
(0,704,l),
(64,704,l),
(64,768,l),
(256,768,l),
(256,704,l),
(320,704,l),
(320,768,l),
(448,768,l),
(448,704,l),
(384,704,l),
(384,640,l),
(192,640,l),
(192,704,l),
(128,704,l),
(128,640,l)
);
}
);
width = 512;
}
);
unicode = 213;
},
{
glyphname = Odieresis;
layers = (
{
layerId = "66415128-06F0-485A-B2B6-660C25DA677B";
shapes = (
{
closed = 1;
nodes = (
(256,64,l),
(256,512,l),
(128,512,l),
(128,64,l)
);
},
{
closed = 1;
nodes = (
(64,0,l),
(64,64,l),
(0,64,l),
(0,512,l),
(64,512,l),
(64,576,l),
(320,576,l),
(320,512,l),
(384,512,l),
(384,64,l),
(320,64,l),
(320,0,l)
);
},
{
closed = 1;
nodes = (
(0,640,l),
(0,768,l),
(128,768,l),
(128,640,l)
);
},
{
closed = 1;
nodes = (
(256,640,l),
(256,768,l),
(384,768,l),
(384,640,l)
);
}
);
width = 448;
}
);
unicode = 214;
},
{
glyphname = multiply;
layers = (
{
layerId = "66415128-06F0-485A-B2B6-660C25DA677B";
shapes = (
{
closed = 1;
nodes = (
(0,64,l),
(0,128,l),
(64,128,l),
(64,192,l),
(128,192,l),
(128,256,l),
(64,256,l),
(64,320,l),
(0,320,l),
(0,384,l),
(128,384,l),
(128,320,l),
(256,320,l),
(256,384,l),
(384,384,l),
(384,320,l),
(320,320,l),
(320,256,l),
(256,256,l),
(256,192,l),
(320,192,l),
(320,128,l),
(384,128,l),
(384,64,l),
(256,64,l),
(256,128,l),
(128,128,l),
(128,64,l)
);
}
);
width = 448;
}
);
unicode = 215;
},
{
glyphname = Oslash;
layers = (
{
layerId = "66415128-06F0-485A-B2B6-660C25DA677B";
shapes = (
{
closed = 1;
nodes = (
(256,64,l),
(256,256,l),
(192,256,l),
(192,128,l),
(128,128,l),
(128,64,l)
);
},
{
closed = 1;
nodes = (
(192,320,l),
(192,448,l),
(256,448,l),
(256,512,l),
(128,512,l),
(128,320,l)
);
},
{
closed = 1;
nodes = (
(0,-64,l),
(0,512,l),
(64,512,l),
(64,576,l),
(320,576,l),
(320,640,l),
(384,640,l),
(384,64,l),
(320,64,l),
(320,0,l),
(64,0,l),
(64,-64,l)
);
}
);
width = 448;
}
);
unicode = 216;
},
{
glyphname = Ugrave;
layers = (
{
layerId = "66415128-06F0-485A-B2B6-660C25DA677B";
shapes = (
{
closed = 1;
nodes = (
(64,0,l),
(64,64,l),
(0,64,l),
(0,576,l),
(128,576,l),
(128,64,l),
(256,64,l),
(256,576,l),
(384,576,l),
(384,64,l),
(320,64,l),
(320,0,l)
);
},
{
closed = 1;
nodes = (
(128,640,l),
(128,704,l),
(64,704,l),
(64,768,l),
(192,768,l),
(192,704,l),
(256,704,l),
(256,640,l)
);
}
);
width = 448;
}
);
unicode = 217;
},
{
glyphname = Uacute;
layers = (
{
layerId = "66415128-06F0-485A-B2B6-660C25DA677B";
shapes = (
{
closed = 1;
nodes = (
(64,0,l),
(64,64,l),
(0,64,l),
(0,576,l),
(128,576,l),
(128,64,l),
(256,64,l),
(256,576,l),
(384,576,l),
(384,64,l),
(320,64,l),
(320,0,l)
);
},
{
closed = 1;
nodes = (
(128,640,l),
(128,704,l),
(192,704,l),
(192,768,l),
(320,768,l),
(320,704,l),
(256,704,l),
(256,640,l)
);
}
);
width = 448;
}
);
unicode = 218;
},
{
glyphname = Ucircumflex;
layers = (
{
layerId = "66415128-06F0-485A-B2B6-660C25DA677B";
shapes = (
{
closed = 1;
nodes = (
(64,0,l),
(64,64,l),
(0,64,l),
(0,576,l),
(128,576,l),
(128,64,l),
(256,64,l),
(256,576,l),
(384,576,l),
(384,64,l),
(320,64,l),
(320,0,l)
);
},
{
closed = 1;
nodes = (
(0,640,l),
(0,704,l),
(64,704,l),
(64,768,l),
(128,768,l),
(128,832,l),
(256,832,l),
(256,768,l),
(320,768,l),
(320,704,l),
(384,704,l),
(384,640,l),
(256,640,l),
(256,704,l),
(128,704,l),
(128,640,l)
);
}
);
width = 448;
}
);
unicode = 219;
},
{
glyphname = Udieresis;
layers = (
{
layerId = "66415128-06F0-485A-B2B6-660C25DA677B";
shapes = (
{
closed = 1;
nodes = (
(64,0,l),
(64,64,l),
(0,64,l),
(0,576,l),
(128,576,l),
(128,64,l),
(256,64,l),
(256,576,l),
(384,576,l),
(384,64,l),
(320,64,l),
(320,0,l)
);
},
{
closed = 1;
nodes = (
(0,640,l),
(0,768,l),
(128,768,l),
(128,640,l)
);
},
{
closed = 1;
nodes = (
(256,640,l),
(256,768,l),
(384,768,l),
(384,640,l)
);
}
);
width = 448;
}
);
unicode = 220;
},
{
glyphname = Yacute;
layers = (
{
layerId = "66415128-06F0-485A-B2B6-660C25DA677B";
shapes = (
{
closed = 1;
nodes = (
(128,0,l),
(128,256,l),
(64,256,l),
(64,320,l),
(0,320,l),
(0,576,l),
(128,576,l),
(128,320,l),
(256,320,l),
(256,576,l),
(384,576,l),
(384,320,l),
(320,320,l),
(320,256,l),
(256,256,l),
(256,0,l)
);
},
{
closed = 1;
nodes = (
(128,640,l),
(128,704,l),
(192,704,l),
(192,768,l),
(320,768,l),
(320,704,l),
(256,704,l),
(256,640,l)
);
}
);
width = 448;
}
);
unicode = 221;
},
{
glyphname = Thorn;
layers = (
{
layerId = "66415128-06F0-485A-B2B6-660C25DA677B";
shapes = (
{
closed = 1;
nodes = (
(256,192,l),
(256,384,l),
(128,384,l),
(128,192,l)
);
},
{
closed = 1;
nodes = (
(0,0,l),
(0,576,l),
(128,576,l),
(128,448,l),
(320,448,l),
(320,384,l),
(384,384,l),
(384,192,l),
(320,192,l),
(320,128,l),
(128,128,l),
(128,0,l)
);
}
);
width = 448;
}
);
unicode = 222;
},
{
glyphname = germandbls;
layers = (
{
layerId = "66415128-06F0-485A-B2B6-660C25DA677B";
shapes = (
{
closed = 1;
nodes = (
(0,0,l),
(0,512,l),
(64,512,l),
(64,576,l),
(320,576,l),
(320,512,l),
(384,512,l),
(384,320,l),
(320,320,l),
(320,256,l),
(384,256,l),
(384,64,l),
(320,64,l),
(320,0,l),
(192,0,l),
(192,64,l),
(256,64,l),
(256,256,l),
(192,256,l),
(192,320,l),
(256,320,l),
(256,512,l),
(128,512,l),
(128,0,l)
);
}
);
width = 448;
}
);
unicode = 223;
},
{
glyphname = agrave;
layers = (
{
layerId = "66415128-06F0-485A-B2B6-660C25DA677B";
shapes = (
{
closed = 1;
nodes = (
(256,64,l),
(256,192,l),
(128,192,l),
(128,64,l)
);
},
{
closed = 1;
nodes = (
(64,0,l),
(64,64,l),
(0,64,l),
(0,192,l),
(64,192,l),
(64,256,l),
(256,256,l),
(256,384,l),
(128,384,l),
(128,320,l),
(0,320,l),
(0,384,l),
(64,384,l),
(64,448,l),
(320,448,l),
(320,384,l),
(384,384,l),
(384,0,l)
);
},
{
closed = 1;
nodes = (
(128,512,l),
(128,576,l),
(64,576,l),
(64,640,l),
(192,640,l),
(192,576,l),
(256,576,l),
(256,512,l)
);
}
);
width = 448;
}
);
unicode = 224;
},
{
glyphname = aacute;
layers = (
{
layerId = "66415128-06F0-485A-B2B6-660C25DA677B";
shapes = (
{
closed = 1;
nodes = (
(256,64,l),
(256,192,l),
(128,192,l),
(128,64,l)
);
},
{
closed = 1;
nodes = (
(64,0,l),
(64,64,l),
(0,64,l),
(0,192,l),
(64,192,l),
(64,256,l),
(256,256,l),
(256,384,l),
(128,384,l),
(128,320,l),
(0,320,l),
(0,384,l),
(64,384,l),
(64,448,l),
(320,448,l),
(320,384,l),
(384,384,l),
(384,0,l)
);
},
{
closed = 1;
nodes = (
(128,512,l),
(128,576,l),
(192,576,l),
(192,640,l),
(320,640,l),
(320,576,l),
(256,576,l),
(256,512,l)
);
}
);
width = 448;
}
);
unicode = 225;
},
{
glyphname = acircumflex;
layers = (
{
layerId = "66415128-06F0-485A-B2B6-660C25DA677B";
shapes = (
{
closed = 1;
nodes = (
(256,64,l),
(256,192,l),
(128,192,l),
(128,64,l)
);
},
{
closed = 1;
nodes = (
(64,0,l),
(64,64,l),
(0,64,l),
(0,192,l),
(64,192,l),
(64,256,l),
(256,256,l),
(256,384,l),
(128,384,l),
(128,320,l),
(0,320,l),
(0,384,l),
(64,384,l),
(64,448,l),
(320,448,l),
(320,384,l),
(384,384,l),
(384,0,l)
);
},
{
closed = 1;
nodes = (
(0,512,l),
(0,576,l),
(64,576,l),
(64,640,l),
(128,640,l),
(128,704,l),
(256,704,l),
(256,640,l),
(320,640,l),
(320,576,l),
(384,576,l),
(384,512,l),
(256,512,l),
(256,576,l),
(128,576,l),
(128,512,l)
);
}
);
width = 448;
}
);
unicode = 226;
},
{
glyphname = atilde;
layers = (
{
layerId = "66415128-06F0-485A-B2B6-660C25DA677B";
shapes = (
{
closed = 1;
nodes = (
(256,64,l),
(256,192,l),
(128,192,l),
(128,64,l)
);
},
{
closed = 1;
nodes = (
(64,0,l),
(64,64,l),
(0,64,l),
(0,192,l),
(64,192,l),
(64,256,l),
(256,256,l),
(256,384,l),
(128,384,l),
(128,320,l),
(0,320,l),
(0,384,l),
(64,384,l),
(64,448,l),
(320,448,l),
(320,384,l),
(384,384,l),
(384,0,l)
);
},
{
closed = 1;
nodes = (
(0,512,l),
(0,576,l),
(64,576,l),
(64,640,l),
(256,640,l),
(256,576,l),
(320,576,l),
(320,640,l),
(448,640,l),
(448,576,l),
(384,576,l),
(384,512,l),
(192,512,l),
(192,576,l),
(128,576,l),
(128,512,l)
);
}
);
width = 512;
}
);
unicode = 227;
},
{
glyphname = adieresis;
layers = (
{
layerId = "66415128-06F0-485A-B2B6-660C25DA677B";
shapes = (
{
closed = 1;
nodes = (
(256,64,l),
(256,192,l),
(128,192,l),
(128,64,l)
);
},
{
closed = 1;
nodes = (
(64,0,l),
(64,64,l),
(0,64,l),
(0,192,l),
(64,192,l),
(64,256,l),
(256,256,l),
(256,384,l),
(128,384,l),
(128,320,l),
(0,320,l),
(0,384,l),
(64,384,l),
(64,448,l),
(320,448,l),
(320,384,l),
(384,384,l),
(384,0,l)
);
}
);
width = 448;
}
);
unicode = 228;
},
{
glyphname = aring;
layers = (
{
layerId = "66415128-06F0-485A-B2B6-660C25DA677B";
shapes = (
{
closed = 1;
nodes = (
(256,64,l),
(256,192,l),
(128,192,l),
(128,64,l)
);
},
{
closed = 1;
nodes = (
(256,448,l),
(256,576,l),
(128,576,l),
(128,448,l)
);
},
{
closed = 1;
nodes = (
(64,0,l),
(64,64,l),
(0,64,l),
(0,192,l),
(64,192,l),
(64,256,l),
(256,256,l),
(256,384,l),
(128,384,l),
(128,320,l),
(0,320,l),
(0,384,l),
(64,384,l),
(64,448,l),
(0,448,l),
(0,576,l),
(64,576,l),
(64,640,l),
(320,640,l),
(320,576,l),
(384,576,l),
(384,448,l),
(320,448,l),
(320,384,l),
(384,384,l),
(384,0,l)
);
}
);
width = 448;
}
);
unicode = 229;
},
{
glyphname = ae;
layers = (
{
layerId = "66415128-06F0-485A-B2B6-660C25DA677B";
shapes = (
{
closed = 1;
nodes = (
(64,0,l),
(64,64,l),
(0,64,l),
(0,192,l),
(64,192,l),
(64,256,l),
(192,256,l),
(192,384,l),
(128,384,l),
(128,320,l),
(0,320,l),
(0,384,l),
(64,384,l),
(64,448,l),
(256,448,l),
(256,384,l),
(320,384,l),
(320,256,l),
(384,256,l),
(384,384,l),
(320,384,l),
(320,448,l),
(448,448,l),
(448,384,l),
(512,384,l),
(512,192,l),
(320,192,l),
(320,64,l),
(384,64,l),
(384,128,l),
(512,128,l),
(512,64,l),
(448,64,l),
(448,0,l),
(256,0,l),
(256,64,l),
(192,64,l),
(192,192,l),
(128,192,l),
(128,64,l),
(192,64,l),
(192,0,l)
);
}
);
width = 576;
}
);
unicode = 230;
},
{
glyphname = ccedilla;
layers = (
{
layerId = "66415128-06F0-485A-B2B6-660C25DA677B";
shapes = (
{
closed = 1;
nodes = (
(64,-128,l),
(64,-64,l),
(128,-64,l),
(128,0,l),
(64,0,l),
(64,64,l),
(0,64,l),
(0,384,l),
(64,384,l),
(64,448,l),
(320,448,l),
(320,384,l),
(384,384,l),
(384,256,l),
(256,256,l),
(256,384,l),
(128,384,l),
(128,64,l),
(256,64,l),
(256,192,l),
(384,192,l),
(384,64,l),
(320,64,l),
(320,0,l),
(256,0,l),
(256,-64,l),
(192,-64,l),
(192,-128,l)
);
}
);
width = 448;
}
);
unicode = 231;
},
{
glyphname = egrave;
layers = (
{
layerId = "66415128-06F0-485A-B2B6-660C25DA677B";
shapes = (
{
closed = 1;
nodes = (
(256,256,l),
(256,384,l),
(128,384,l),
(128,256,l)
);
},
{
closed = 1;
nodes = (
(64,0,l),
(64,64,l),
(0,64,l),
(0,384,l),
(64,384,l),
(64,448,l),
(320,448,l),
(320,384,l),
(384,384,l),
(384,192,l),
(128,192,l),
(128,64,l),
(256,64,l),
(256,128,l),
(384,128,l),
(384,64,l),
(320,64,l),
(320,0,l)
);
},
{
closed = 1;
nodes = (
(128,512,l),
(128,576,l),
(64,576,l),
(64,640,l),
(192,640,l),
(192,576,l),
(256,576,l),
(256,512,l)
);
}
);
width = 448;
}
);
unicode = 232;
},
{
glyphname = eacute;
layers = (
{
layerId = "66415128-06F0-485A-B2B6-660C25DA677B";
shapes = (
{
closed = 1;
nodes = (
(256,256,l),
(256,384,l),
(128,384,l),
(128,256,l)
);
},
{
closed = 1;
nodes = (
(64,0,l),
(64,64,l),
(0,64,l),
(0,384,l),
(64,384,l),
(64,448,l),
(320,448,l),
(320,384,l),
(384,384,l),
(384,192,l),
(128,192,l),
(128,64,l),
(256,64,l),
(256,128,l),
(384,128,l),
(384,64,l),
(320,64,l),
(320,0,l)
);
},
{
closed = 1;
nodes = (
(128,512,l),
(128,576,l),
(192,576,l),
(192,640,l),
(320,640,l),
(320,576,l),
(256,576,l),
(256,512,l)
);
}
);
width = 448;
}
);
unicode = 233;
},
{
glyphname = ecircumflex;
layers = (
{
layerId = "66415128-06F0-485A-B2B6-660C25DA677B";
shapes = (
{
closed = 1;
nodes = (
(256,256,l),
(256,384,l),
(128,384,l),
(128,256,l)
);
},
{
closed = 1;
nodes = (
(64,0,l),
(64,64,l),
(0,64,l),
(0,384,l),
(64,384,l),
(64,448,l),
(320,448,l),
(320,384,l),
(384,384,l),
(384,192,l),
(128,192,l),
(128,64,l),
(256,64,l),
(256,128,l),
(384,128,l),
(384,64,l),
(320,64,l),
(320,0,l)
);
},
{
closed = 1;
nodes = (
(0,512,l),
(0,576,l),
(64,576,l),
(64,640,l),
(128,640,l),
(128,704,l),
(256,704,l),
(256,640,l),
(320,640,l),
(320,576,l),
(384,576,l),
(384,512,l),
(256,512,l),
(256,576,l),
(128,576,l),
(128,512,l)
);
}
);
width = 448;
}
);
unicode = 234;
},
{
glyphname = edieresis;
layers = (
{
layerId = "66415128-06F0-485A-B2B6-660C25DA677B";
shapes = (
{
closed = 1;
nodes = (
(256,256,l),
(256,384,l),
(128,384,l),
(128,256,l)
);
},
{
closed = 1;
nodes = (
(64,0,l),
(64,64,l),
(0,64,l),
(0,384,l),
(64,384,l),
(64,448,l),
(320,448,l),
(320,384,l),
(384,384,l),
(384,192,l),
(128,192,l),
(128,64,l),
(256,64,l),
(256,128,l),
(384,128,l),
(384,64,l),
(320,64,l),
(320,0,l)
);
},
{
closed = 1;
nodes = (
(0,512,l),
(0,640,l),
(128,640,l),
(128,512,l)
);
},
{
closed = 1;
nodes = (
(256,512,l),
(256,640,l),
(384,640,l),
(384,512,l)
);
}
);
width = 448;
}
);
unicode = 235;
},
{
glyphname = igrave;
layers = (
{
layerId = "66415128-06F0-485A-B2B6-660C25DA677B";
shapes = (
{
closed = 1;
nodes = (
(0,0,l),
(0,64,l),
(128,64,l),
(128,384,l),
(0,384,l),
(0,448,l),
(256,448,l),
(256,64,l),
(384,64,l),
(384,0,l)
);
},
{
closed = 1;
nodes = (
(128,512,l),
(128,576,l),
(64,576,l),
(64,640,l),
(192,640,l),
(192,576,l),
(256,576,l),
(256,512,l)
);
}
);
width = 448;
}
);
unicode = 236;
},
{
glyphname = iacute;
layers = (
{
layerId = "66415128-06F0-485A-B2B6-660C25DA677B";
shapes = (
{
closed = 1;
nodes = (
(0,0,l),
(0,64,l),
(128,64,l),
(128,384,l),
(0,384,l),
(0,448,l),
(256,448,l),
(256,64,l),
(384,64,l),
(384,0,l)
);
},
{
closed = 1;
nodes = (
(128,512,l),
(128,576,l),
(192,576,l),
(192,640,l),
(320,640,l),
(320,576,l),
(256,576,l),
(256,512,l)
);
}
);
width = 448;
}
);
unicode = 237;
},
{
glyphname = icircumflex;
layers = (
{
layerId = "66415128-06F0-485A-B2B6-660C25DA677B";
shapes = (
{
closed = 1;
nodes = (
(0,0,l),
(0,64,l),
(128,64,l),
(128,384,l),
(0,384,l),
(0,448,l),
(256,448,l),
(256,64,l),
(384,64,l),
(384,0,l)
);
},
{
closed = 1;
nodes = (
(0,512,l),
(0,576,l),
(64,576,l),
(64,640,l),
(128,640,l),
(128,704,l),
(256,704,l),
(256,640,l),
(320,640,l),
(320,576,l),
(384,576,l),
(384,512,l),
(256,512,l),
(256,576,l),
(128,576,l),
(128,512,l)
);
}
);
width = 448;
}
);
unicode = 238;
},
{
glyphname = idieresis;
layers = (
{
layerId = "66415128-06F0-485A-B2B6-660C25DA677B";
shapes = (
{
closed = 1;
nodes = (
(0,0,l),
(0,64,l),
(128,64,l),
(128,384,l),
(0,384,l),
(0,448,l),
(256,448,l),
(256,64,l),
(384,64,l),
(384,0,l)
);
},
{
closed = 1;
nodes = (
(0,512,l),
(0,640,l),
(128,640,l),
(128,512,l)
);
},
{
closed = 1;
nodes = (
(256,512,l),
(256,640,l),
(384,640,l),
(384,512,l)
);
}
);
width = 448;
}
);
unicode = 239;
},
{
glyphname = eth;
layers = (
{
layerId = "66415128-06F0-485A-B2B6-660C25DA677B";
shapes = (
{
closed = 1;
nodes = (
(256,64,l),
(256,256,l),
(128,256,l),
(128,64,l)
);
},
{
closed = 1;
nodes = (
(128,384,l),
(128,448,l),
(192,448,l),
(192,384,l)
);
},
{
closed = 1;
nodes = (
(64,0,l),
(64,64,l),
(0,64,l),
(0,256,l),
(64,256,l),
(64,320,l),
(256,320,l),
(256,448,l),
(192,448,l),
(192,512,l),
(64,512,l),
(64,576,l),
(256,576,l),
(256,512,l),
(320,512,l),
(320,448,l),
(384,448,l),
(384,64,l),
(320,64,l),
(320,0,l)
);
},
{
closed = 1;
nodes = (
(320,512,l),
(320,576,l),
(384,576,l),
(384,512,l)
);
}
);
width = 448;
}
);
unicode = 240;
},
{
glyphname = ntilde;
layers = (
{
layerId = "66415128-06F0-485A-B2B6-660C25DA677B";
shapes = (
{
closed = 1;
nodes = (
(0,0,l),
(0,448,l),
(320,448,l),
(320,384,l),
(384,384,l),
(384,0,l),
(256,0,l),
(256,384,l),
(128,384,l),
(128,0,l)
);
},
{
closed = 1;
nodes = (
(0,512,l),
(0,576,l),
(64,576,l),
(64,640,l),
(256,640,l),
(256,576,l),
(320,576,l),
(320,640,l),
(448,640,l),
(448,576,l),
(384,576,l),
(384,512,l),
(192,512,l),
(192,576,l),
(128,576,l),
(128,512,l)
);
}
);
width = 512;
}
);
unicode = 241;
},
{
glyphname = ograve;
layers = (
{
layerId = "66415128-06F0-485A-B2B6-660C25DA677B";
shapes = (
{
closed = 1;
nodes = (
(256,64,l),
(256,384,l),
(128,384,l),
(128,64,l)
);
},
{
closed = 1;
nodes = (
(64,0,l),
(64,64,l),
(0,64,l),
(0,384,l),
(64,384,l),
(64,448,l),
(320,448,l),
(320,384,l),
(384,384,l),
(384,64,l),
(320,64,l),
(320,0,l)
);
},
{
closed = 1;
nodes = (
(128,512,l),
(128,576,l),
(64,576,l),
(64,640,l),
(192,640,l),
(192,576,l),
(256,576,l),
(256,512,l)
);
}
);
width = 448;
}
);
unicode = 242;
},
{
glyphname = oacute;
layers = (
{
layerId = "66415128-06F0-485A-B2B6-660C25DA677B";
shapes = (
{
closed = 1;
nodes = (
(256,64,l),
(256,384,l),
(128,384,l),
(128,64,l)
);
},
{
closed = 1;
nodes = (
(64,0,l),
(64,64,l),
(0,64,l),
(0,384,l),
(64,384,l),
(64,448,l),
(320,448,l),
(320,384,l),
(384,384,l),
(384,64,l),
(320,64,l),
(320,0,l)
);
},
{
closed = 1;
nodes = (
(128,512,l),
(128,576,l),
(192,576,l),
(192,640,l),
(320,640,l),
(320,576,l),
(256,576,l),
(256,512,l)
);
}
);
width = 448;
}
);
unicode = 243;
},
{
glyphname = ocircumflex;
layers = (
{
layerId = "66415128-06F0-485A-B2B6-660C25DA677B";
shapes = (
{
closed = 1;
nodes = (
(256,64,l),
(256,384,l),
(128,384,l),
(128,64,l)
);
},
{
closed = 1;
nodes = (
(64,0,l),
(64,64,l),
(0,64,l),
(0,384,l),
(64,384,l),
(64,448,l),
(320,448,l),
(320,384,l),
(384,384,l),
(384,64,l),
(320,64,l),
(320,0,l)
);
},
{
closed = 1;
nodes = (
(0,512,l),
(0,576,l),
(64,576,l),
(64,640,l),
(128,640,l),
(128,704,l),
(256,704,l),
(256,640,l),
(320,640,l),
(320,576,l),
(384,576,l),
(384,512,l),
(256,512,l),
(256,576,l),
(128,576,l),
(128,512,l)
);
}
);
width = 448;
}
);
unicode = 244;
},
{
glyphname = otilde;
layers = (
{
layerId = "66415128-06F0-485A-B2B6-660C25DA677B";
shapes = (
{
closed = 1;
nodes = (
(256,64,l),
(256,384,l),
(128,384,l),
(128,64,l)
);
},
{
closed = 1;
nodes = (
(64,0,l),
(64,64,l),
(0,64,l),
(0,384,l),
(64,384,l),
(64,448,l),
(320,448,l),
(320,384,l),
(384,384,l),
(384,64,l),
(320,64,l),
(320,0,l)
);
},
{
closed = 1;
nodes = (
(0,512,l),
(0,576,l),
(64,576,l),
(64,640,l),
(256,640,l),
(256,576,l),
(320,576,l),
(320,640,l),
(448,640,l),
(448,576,l),
(384,576,l),
(384,512,l),
(192,512,l),
(192,576,l),
(128,576,l),
(128,512,l)
);
}
);
width = 512;
}
);
unicode = 245;
},
{
glyphname = odieresis;
layers = (
{
layerId = "66415128-06F0-485A-B2B6-660C25DA677B";
shapes = (
{
closed = 1;
nodes = (
(256,64,l),
(256,384,l),
(128,384,l),
(128,64,l)
);
},
{
closed = 1;
nodes = (
(64,0,l),
(64,64,l),
(0,64,l),
(0,384,l),
(64,384,l),
(64,448,l),
(320,448,l),
(320,384,l),
(384,384,l),
(384,64,l),
(320,64,l),
(320,0,l)
);
},
{
closed = 1;
nodes = (
(0,512,l),
(0,640,l),
(128,640,l),
(128,512,l)
);
},
{
closed = 1;
nodes = (
(256,512,l),
(256,640,l),
(384,640,l),
(384,512,l)
);
}
);
width = 448;
}
);
unicode = 246;
},
{
glyphname = divide;
layers = (
{
layerId = "66415128-06F0-485A-B2B6-660C25DA677B";
shapes = (
{
closed = 1;
nodes = (
(128,64,l),
(128,192,l),
(256,192,l),
(256,64,l)
);
},
{
closed = 1;
nodes = (
(0,256,l),
(0,320,l),
(384,320,l),
(384,256,l)
);
},
{
closed = 1;
nodes = (
(128,384,l),
(128,512,l),
(256,512,l),
(256,384,l)
);
}
);
width = 448;
}
);
unicode = 247;
},
{
glyphname = oslash;
layers = (
{
layerId = "66415128-06F0-485A-B2B6-660C25DA677B";
shapes = (
{
closed = 1;
nodes = (
(256,64,l),
(256,192,l),
(192,192,l),
(192,128,l),
(128,128,l),
(128,64,l)
);
},
{
closed = 1;
nodes = (
(192,256,l),
(192,320,l),
(256,320,l),
(256,384,l),
(128,384,l),
(128,256,l)
);
},
{
closed = 1;
nodes = (
(0,-64,l),
(0,384,l),
(64,384,l),
(64,448,l),
(320,448,l),
(320,512,l),
(384,512,l),
(384,64,l),
(320,64,l),
(320,0,l),
(64,0,l),
(64,-64,l)
);
}
);
width = 448;
}
);
unicode = 248;
},
{
glyphname = ugrave;
layers = (
{
layerId = "66415128-06F0-485A-B2B6-660C25DA677B";
shapes = (
{
closed = 1;
nodes = (
(64,0,l),
(64,64,l),
(0,64,l),
(0,448,l),
(128,448,l),
(128,64,l),
(256,64,l),
(256,448,l),
(384,448,l),
(384,0,l)
);
},
{
closed = 1;
nodes = (
(128,512,l),
(128,576,l),
(64,576,l),
(64,640,l),
(192,640,l),
(192,576,l),
(256,576,l),
(256,512,l)
);
}
);
width = 448;
}
);
unicode = 249;
},
{
glyphname = uacute;
layers = (
{
layerId = "66415128-06F0-485A-B2B6-660C25DA677B";
shapes = (
{
closed = 1;
nodes = (
(64,0,l),
(64,64,l),
(0,64,l),
(0,448,l),
(128,448,l),
(128,64,l),
(256,64,l),
(256,448,l),
(384,448,l),
(384,0,l)
);
},
{
closed = 1;
nodes = (
(128,512,l),
(128,576,l),
(192,576,l),
(192,640,l),
(320,640,l),
(320,576,l),
(256,576,l),
(256,512,l)
);
}
);
width = 448;
}
);
unicode = 250;
},
{
glyphname = ucircumflex;
layers = (
{
layerId = "66415128-06F0-485A-B2B6-660C25DA677B";
shapes = (
{
closed = 1;
nodes = (
(64,0,l),
(64,64,l),
(0,64,l),
(0,448,l),
(128,448,l),
(128,64,l),
(256,64,l),
(256,448,l),
(384,448,l),
(384,0,l)
);
},
{
closed = 1;
nodes = (
(0,512,l),
(0,576,l),
(64,576,l),
(64,640,l),
(128,640,l),
(128,704,l),
(256,704,l),
(256,640,l),
(320,640,l),
(320,576,l),
(384,576,l),
(384,512,l),
(256,512,l),
(256,576,l),
(128,576,l),
(128,512,l)
);
}
);
width = 448;
}
);
unicode = 251;
},
{
glyphname = udieresis;
layers = (
{
layerId = "66415128-06F0-485A-B2B6-660C25DA677B";
shapes = (
{
closed = 1;
nodes = (
(64,0,l),
(64,64,l),
(0,64,l),
(0,448,l),
(128,448,l),
(128,64,l),
(256,64,l),
(256,448,l),
(384,448,l),
(384,0,l)
);
},
{
closed = 1;
nodes = (
(0,512,l),
(0,640,l),
(128,640,l),
(128,512,l)
);
},
{
closed = 1;
nodes = (
(256,512,l),
(256,640,l),
(384,640,l),
(384,512,l)
);
}
);
width = 448;
}
);
unicode = 252;
},
{
glyphname = yacute;
layers = (
{
layerId = "66415128-06F0-485A-B2B6-660C25DA677B";
shapes = (
{
closed = 1;
nodes = (
(64,-192,l),
(64,-128,l),
(0,-128,l),
(0,-64,l),
(128,-64,l),
(128,-128,l),
(256,-128,l),
(256,0,l),
(64,0,l),
(64,64,l),
(0,64,l),
(0,448,l),
(128,448,l),
(128,64,l),
(256,64,l),
(256,448,l),
(384,448,l),
(384,-128,l),
(320,-128,l),
(320,-192,l)
);
},
{
closed = 1;
nodes = (
(128,512,l),
(128,576,l),
(192,576,l),
(192,640,l),
(320,640,l),
(320,576,l),
(256,576,l),
(256,512,l)
);
}
);
width = 448;
}
);
unicode = 253;
},
{
glyphname = thorn;
layers = (
{
layerId = "66415128-06F0-485A-B2B6-660C25DA677B";
shapes = (
{
closed = 1;
nodes = (
(256,64,l),
(256,384,l),
(128,384,l),
(128,64,l)
);
},
{
closed = 1;
nodes = (
(0,-192,l),
(0,576,l),
(128,576,l),
(128,448,l),
(320,448,l),
(320,384,l),
(384,384,l),
(384,64,l),
(320,64,l),
(320,0,l),
(128,0,l),
(128,-192,l)
);
}
);
width = 448;
}
);
unicode = 254;
},
{
glyphname = ydieresis;
layers = (
{
layerId = "66415128-06F0-485A-B2B6-660C25DA677B";
shapes = (
{
closed = 1;
nodes = (
(64,-192,l),
(64,-128,l),
(0,-128,l),
(0,-64,l),
(128,-64,l),
(128,-128,l),
(256,-128,l),
(256,0,l),
(64,0,l),
(64,64,l),
(0,64,l),
(0,448,l),
(128,448,l),
(128,64,l),
(256,64,l),
(256,448,l),
(384,448,l),
(384,-128,l),
(320,-128,l),
(320,-192,l)
);
},
{
closed = 1;
nodes = (
(0,512,l),
(0,640,l),
(128,640,l),
(128,512,l)
);
},
{
closed = 1;
nodes = (
(256,512,l),
(256,640,l),
(384,640,l),
(384,512,l)
);
}
);
width = 448;
}
);
unicode = 255;
},
{
glyphname = dotlessi;
layers = (
{
layerId = "66415128-06F0-485A-B2B6-660C25DA677B";
shapes = (
{
closed = 1;
nodes = (
(0,0,l),
(0,64,l),
(128,64,l),
(128,384,l),
(0,384,l),
(0,448,l),
(256,448,l),
(256,64,l),
(384,64,l),
(384,0,l)
);
}
);
width = 448;
}
);
unicode = 305;
},
{
glyphname = Lslash;
layers = (
{
layerId = "66415128-06F0-485A-B2B6-660C25DA677B";
shapes = (
{
closed = 1;
nodes = (
(64,0,l),
(64,192,l),
(0,192,l),
(0,256,l),
(64,256,l),
(64,576,l),
(192,576,l),
(192,320,l),
(320,320,l),
(320,256,l),
(192,256,l),
(192,64,l),
(384,64,l),
(384,0,l)
);
}
);
width = 448;
}
);
unicode = 321;
},
{
glyphname = lslash;
layers = (
{
layerId = "66415128-06F0-485A-B2B6-660C25DA677B";
shapes = (
{
closed = 1;
nodes = (
(0,0,l),
(0,64,l),
(128,64,l),
(128,192,l),
(0,192,l),
(0,256,l),
(128,256,l),
(128,512,l),
(0,512,l),
(0,576,l),
(256,576,l),
(256,384,l),
(384,384,l),
(384,320,l),
(256,320,l),
(256,64,l),
(384,64,l),
(384,0,l)
);
}
);
width = 448;
}
);
unicode = 322;
},
{
glyphname = OE;
layers = (
{
layerId = "66415128-06F0-485A-B2B6-660C25DA677B";
shapes = (
{
closed = 1;
nodes = (
(256,64,l),
(256,512,l),
(128,512,l),
(128,64,l)
);
},
{
closed = 1;
nodes = (
(64,0,l),
(64,64,l),
(0,64,l),
(0,512,l),
(64,512,l),
(64,576,l),
(512,576,l),
(512,512,l),
(384,512,l),
(384,320,l),
(512,320,l),
(512,256,l),
(384,256,l),
(384,64,l),
(512,64,l),
(512,0,l)
);
}
);
width = 576;
}
);
unicode = 338;
},
{
glyphname = oe;
layers = (
{
layerId = "66415128-06F0-485A-B2B6-660C25DA677B";
shapes = (
{
closed = 1;
nodes = (
(384,256,l),
(384,384,l),
(320,384,l),
(320,256,l)
);
},
{
closed = 1;
nodes = (
(64,0,l),
(64,64,l),
(0,64,l),
(0,384,l),
(64,384,l),
(64,448,l),
(192,448,l),
(192,384,l),
(128,384,l),
(128,64,l),
(192,64,l),
(192,0,l)
);
},
{
closed = 1;
nodes = (
(256,0,l),
(256,64,l),
(192,64,l),
(192,384,l),
(256,384,l),
(256,448,l),
(448,448,l),
(448,384,l),
(512,384,l),
(512,192,l),
(320,192,l),
(320,64,l),
(384,64,l),
(384,128,l),
(512,128,l),
(512,64,l),
(448,64,l),
(448,0,l)
);
}
);
width = 576;
}
);
unicode = 339;
},
{
glyphname = Scaron;
layers = (
{
layerId = "66415128-06F0-485A-B2B6-660C25DA677B";
shapes = (
{
closed = 1;
nodes = (
(64,0,l),
(64,64,l),
(0,64,l),
(0,192,l),
(128,192,l),
(128,64,l),
(256,64,l),
(256,256,l),
(64,256,l),
(64,320,l),
(0,320,l),
(0,512,l),
(64,512,l),
(64,576,l),
(320,576,l),
(320,512,l),
(384,512,l),
(384,384,l),
(256,384,l),
(256,512,l),
(128,512,l),
(128,320,l),
(320,320,l),
(320,256,l),
(384,256,l),
(384,64,l),
(320,64,l),
(320,0,l)
);
},
{
closed = 1;
nodes = (
(128,640,l),
(128,704,l),
(64,704,l),
(64,768,l),
(0,768,l),
(0,832,l),
(128,832,l),
(128,768,l),
(256,768,l),
(256,832,l),
(384,832,l),
(384,768,l),
(320,768,l),
(320,704,l),
(256,704,l),
(256,640,l)
);
}
);
width = 448;
}
);
unicode = 352;
},
{
glyphname = scaron;
layers = (
{
layerId = "66415128-06F0-485A-B2B6-660C25DA677B";
shapes = (
{
closed = 1;
nodes = (
(64,0,l),
(64,64,l),
(0,64,l),
(0,128,l),
(128,128,l),
(128,64,l),
(256,64,l),
(256,192,l),
(64,192,l),
(64,256,l),
(0,256,l),
(0,384,l),
(64,384,l),
(64,448,l),
(320,448,l),
(320,384,l),
(384,384,l),
(384,320,l),
(256,320,l),
(256,384,l),
(128,384,l),
(128,256,l),
(320,256,l),
(320,192,l),
(384,192,l),
(384,64,l),
(320,64,l),
(320,0,l)
);
},
{
closed = 1;
nodes = (
(128,512,l),
(128,576,l),
(64,576,l),
(64,640,l),
(0,640,l),
(0,704,l),
(128,704,l),
(128,640,l),
(256,640,l),
(256,704,l),
(384,704,l),
(384,640,l),
(320,640,l),
(320,576,l),
(256,576,l),
(256,512,l)
);
}
);
width = 448;
}
);
unicode = 353;
},
{
glyphname = Ydieresis;
layers = (
{
layerId = "66415128-06F0-485A-B2B6-660C25DA677B";
shapes = (
{
closed = 1;
nodes = (
(128,0,l),
(128,256,l),
(64,256,l),
(64,320,l),
(0,320,l),
(0,576,l),
(128,576,l),
(128,320,l),
(256,320,l),
(256,576,l),
(384,576,l),
(384,320,l),
(320,320,l),
(320,256,l),
(256,256,l),
(256,0,l)
);
},
{
closed = 1;
nodes = (
(0,640,l),
(0,768,l),
(128,768,l),
(128,640,l)
);
},
{
closed = 1;
nodes = (
(256,640,l),
(256,768,l),
(384,768,l),
(384,640,l)
);
}
);
width = 448;
}
);
unicode = 376;
},
{
glyphname = Zcaron;
layers = (
{
layerId = "66415128-06F0-485A-B2B6-660C25DA677B";
shapes = (
{
closed = 1;
nodes = (
(0,0,l),
(0,192,l),
(64,192,l),
(64,256,l),
(128,256,l),
(128,320,l),
(192,320,l),
(192,384,l),
(256,384,l),
(256,512,l),
(0,512,l),
(0,576,l),
(384,576,l),
(384,384,l),
(320,384,l),
(320,320,l),
(256,320,l),
(256,256,l),
(192,256,l),
(192,192,l),
(128,192,l),
(128,64,l),
(384,64,l),
(384,0,l)
);
},
{
closed = 1;
nodes = (
(128,640,l),
(128,704,l),
(64,704,l),
(64,768,l),
(0,768,l),
(0,832,l),
(128,832,l),
(128,768,l),
(256,768,l),
(256,832,l),
(384,832,l),
(384,768,l),
(320,768,l),
(320,704,l),
(256,704,l),
(256,640,l)
);
}
);
width = 448;
}
);
unicode = 381;
},
{
glyphname = zcaron;
layers = (
{
layerId = "66415128-06F0-485A-B2B6-660C25DA677B";
shapes = (
{
closed = 1;
nodes = (
(0,0,l),
(0,128,l),
(64,128,l),
(64,192,l),
(128,192,l),
(128,256,l),
(192,256,l),
(192,320,l),
(256,320,l),
(256,384,l),
(0,384,l),
(0,448,l),
(384,448,l),
(384,320,l),
(320,320,l),
(320,256,l),
(256,256,l),
(256,192,l),
(192,192,l),
(192,128,l),
(128,128,l),
(128,64,l),
(384,64,l),
(384,0,l)
);
},
{
closed = 1;
nodes = (
(128,512,l),
(128,576,l),
(64,576,l),
(64,640,l),
(0,640,l),
(0,704,l),
(128,704,l),
(128,640,l),
(256,640,l),
(256,704,l),
(384,704,l),
(384,640,l),
(320,640,l),
(320,576,l),
(256,576,l),
(256,512,l)
);
}
);
width = 448;
}
);
unicode = 382;
},
{
glyphname = Germandbls;
layers = (
{
layerId = "66415128-06F0-485A-B2B6-660C25DA677B";
shapes = (
{
closed = 1;
nodes = (
(0,0,l),
(0,512,l),
(64,512,l),
(64,576,l),
(320,576,l),
(320,512,l),
(384,512,l),
(384,320,l),
(320,320,l),
(320,256,l),
(384,256,l),
(384,64,l),
(320,64,l),
(320,0,l),
(192,0,l),
(192,64,l),
(256,64,l),
(256,256,l),
(192,256,l),
(192,320,l),
(256,320,l),
(256,512,l),
(128,512,l),
(128,0,l)
);
}
);
width = 448;
}
);
unicode = 7838;
},
{
glyphname = emdash;
layers = (
{
layerId = "66415128-06F0-485A-B2B6-660C25DA677B";
shapes = (
{
closed = 1;
nodes = (
(0,256,l),
(0,320,l),
(384,320,l),
(384,256,l)
);
}
);
width = 448;
}
);
unicode = 8212;
},
{
glyphname = quoteleft;
layers = (
{
layerId = "66415128-06F0-485A-B2B6-660C25DA677B";
shapes = (
{
closed = 1;
nodes = (
(0,320,l),
(0,512,l),
(64,512,l),
(64,448,l),
(128,448,l),
(128,320,l)
);
},
{
closed = 1;
nodes = (
(64,512,l),
(64,576,l),
(128,576,l),
(128,512,l)
);
}
);
width = 192;
}
);
unicode = 8216;
},
{
glyphname = quoteright;
layers = (
{
layerId = "66415128-06F0-485A-B2B6-660C25DA677B";
shapes = (
{
closed = 1;
nodes = (
(0,320,l),
(0,384,l),
(64,384,l),
(64,320,l)
);
},
{
closed = 1;
nodes = (
(64,384,l),
(64,448,l),
(0,448,l),
(0,576,l),
(128,576,l),
(128,384,l)
);
}
);
width = 192;
}
);
unicode = 8217;
},
{
glyphname = quotesinglbase;
layers = (
{
layerId = "66415128-06F0-485A-B2B6-660C25DA677B";
shapes = (
{
closed = 1;
nodes = (
(0,-128,l),
(0,-64,l),
(64,-64,l),
(64,-128,l)
);
},
{
closed = 1;
nodes = (
(64,-64,l),
(64,0,l),
(0,0,l),
(0,128,l),
(128,128,l),
(128,-64,l)
);
}
);
width = 192;
}
);
unicode = 8218;
},
{
glyphname = quotereversed;
layers = (
{
layerId = "66415128-06F0-485A-B2B6-660C25DA677B";
shapes = (
{
closed = 1;
nodes = (
(64,320,l),
(64,384,l),
(128,384,l),
(128,320,l)
);
},
{
closed = 1;
nodes = (
(0,384,l),
(0,576,l),
(128,576,l),
(128,448,l),
(64,448,l),
(64,384,l)
);
}
);
width = 192;
}
);
unicode = 8219;
},
{
glyphname = quotedblleft;
layers = (
{
layerId = "66415128-06F0-485A-B2B6-660C25DA677B";
shapes = (
{
closed = 1;
nodes = (
(0,320,l),
(0,512,l),
(64,512,l),
(64,448,l),
(128,448,l),
(128,320,l)
);
},
{
closed = 1;
nodes = (
(192,320,l),
(192,512,l),
(256,512,l),
(256,448,l),
(320,448,l),
(320,320,l)
);
},
{
closed = 1;
nodes = (
(64,512,l),
(64,576,l),
(128,576,l),
(128,512,l)
);
},
{
closed = 1;
nodes = (
(256,512,l),
(256,576,l),
(320,576,l),
(320,512,l)
);
}
);
width = 384;
}
);
unicode = 8220;
},
{
glyphname = quotedblright;
layers = (
{
layerId = "66415128-06F0-485A-B2B6-660C25DA677B";
shapes = (
{
closed = 1;
nodes = (
(0,320,l),
(0,384,l),
(64,384,l),
(64,320,l)
);
},
{
closed = 1;
nodes = (
(192,320,l),
(192,384,l),
(256,384,l),
(256,320,l)
);
},
{
closed = 1;
nodes = (
(64,384,l),
(64,448,l),
(0,448,l),
(0,576,l),
(128,576,l),
(128,384,l)
);
},
{
closed = 1;
nodes = (
(256,384,l),
(256,448,l),
(192,448,l),
(192,576,l),
(320,576,l),
(320,384,l)
);
}
);
width = 384;
}
);
unicode = 8221;
},
{
glyphname = quotedblbase;
layers = (
{
layerId = "66415128-06F0-485A-B2B6-660C25DA677B";
shapes = (
{
closed = 1;
nodes = (
(0,-128,l),
(0,-64,l),
(64,-64,l),
(64,-128,l)
);
},
{
closed = 1;
nodes = (
(192,-128,l),
(192,-64,l),
(256,-64,l),
(256,-128,l)
);
},
{
closed = 1;
nodes = (
(64,-64,l),
(64,0,l),
(0,0,l),
(0,128,l),
(128,128,l),
(128,-64,l)
);
},
{
closed = 1;
nodes = (
(256,-64,l),
(256,0,l),
(192,0,l),
(192,128,l),
(320,128,l),
(320,-64,l)
);
}
);
width = 384;
}
);
unicode = 8222;
},
{
glyphname = dagger;
layers = (
{
layerId = "66415128-06F0-485A-B2B6-660C25DA677B";
shapes = (
{
closed = 1;
nodes = (
(128,0,l),
(128,384,l),
(0,384,l),
(0,448,l),
(128,448,l),
(128,576,l),
(256,576,l),
(256,448,l),
(384,448,l),
(384,384,l),
(256,384,l),
(256,0,l)
);
}
);
width = 448;
}
);
unicode = 8224;
},
{
glyphname = bullet;
layers = (
{
layerId = "66415128-06F0-485A-B2B6-660C25DA677B";
shapes = (
{
closed = 1;
nodes = (
(0,256,l),
(0,384,l),
(128,384,l),
(128,256,l)
);
}
);
width = 192;
}
);
unicode = 8226;
},
{
glyphname = ellipsis;
layers = (
{
layerId = "66415128-06F0-485A-B2B6-660C25DA677B";
shapes = (
{
closed = 1;
nodes = (
(0,0,l),
(0,128,l),
(128,128,l),
(128,0,l)
);
},
{
closed = 1;
nodes = (
(192,0,l),
(192,128,l),
(320,128,l),
(320,0,l)
);
},
{
closed = 1;
nodes = (
(384,0,l),
(384,128,l),
(512,128,l),
(512,0,l)
);
}
);
width = 576;
}
);
unicode = 8230;
},
{
glyphname = guilsinglleft;
layers = (
{
layerId = "66415128-06F0-485A-B2B6-660C25DA677B";
shapes = (
{
closed = 1;
nodes = (
(128,128,l),
(128,192,l),
(64,192,l),
(64,256,l),
(0,256,l),
(0,320,l),
(64,320,l),
(64,384,l),
(128,384,l),
(128,448,l),
(256,448,l),
(256,384,l),
(192,384,l),
(192,320,l),
(128,320,l),
(128,256,l),
(192,256,l),
(192,192,l),
(256,192,l),
(256,128,l)
);
}
);
width = 320;
}
);
unicode = 8249;
},
{
glyphname = guilsinglright;
layers = (
{
layerId = "66415128-06F0-485A-B2B6-660C25DA677B";
shapes = (
{
closed = 1;
nodes = (
(0,128,l),
(0,192,l),
(64,192,l),
(64,256,l),
(128,256,l),
(128,320,l),
(64,320,l),
(64,384,l),
(0,384,l),
(0,448,l),
(128,448,l),
(128,384,l),
(192,384,l),
(192,320,l),
(256,320,l),
(256,256,l),
(192,256,l),
(192,192,l),
(128,192,l),
(128,128,l)
);
}
);
width = 320;
}
);
unicode = 8250;
},
{
glyphname = Euro;
layers = (
{
layerId = "66415128-06F0-485A-B2B6-660C25DA677B";
shapes = (
{
closed = 1;
nodes = (
(128,0,l),
(128,64,l),
(64,64,l),
(64,192,l),
(0,192,l),
(0,256,l),
(64,256,l),
(64,320,l),
(0,320,l),
(0,384,l),
(64,384,l),
(64,512,l),
(128,512,l),
(128,576,l),
(384,576,l),
(384,512,l),
(448,512,l),
(448,384,l),
(320,384,l),
(320,512,l),
(192,512,l),
(192,384,l),
(320,384,l),
(320,320,l),
(192,320,l),
(192,256,l),
(320,256,l),
(320,192,l),
(192,192,l),
(192,64,l),
(320,64,l),
(320,192,l),
(448,192,l),
(448,64,l),
(384,64,l),
(384,0,l)
);
}
);
width = 512;
}
);
unicode = 8364;
},
{
glyphname = trademark;
layers = (
{
layerId = "66415128-06F0-485A-B2B6-660C25DA677B";
shapes = (
{
closed = 1;
nodes = (
(320,384,l),
(320,448,l),
(384,448,l),
(384,384,l)
);
},
{
closed = 1;
nodes = (
(64,320,l),
(64,512,l),
(0,512,l),
(0,576,l),
(256,576,l),
(256,512,l),
(320,512,l),
(320,448,l),
(256,448,l),
(256,320,l),
(192,320,l),
(192,512,l),
(128,512,l),
(128,320,l)
);
},
{
closed = 1;
nodes = (
(448,320,l),
(448,448,l),
(384,448,l),
(384,512,l),
(448,512,l),
(448,576,l),
(512,576,l),
(512,320,l)
);
}
);
width = 576;
}
);
unicode = 8482;
},
{
glyphname = fi;
layers = (
{
layerId = "66415128-06F0-485A-B2B6-660C25DA677B";
shapes = (
{
closed = 1;
nodes = (
(64,0,l),
(64,320,l),
(0,320,l),
(0,384,l),
(64,384,l),
(64,512,l),
(128,512,l),
(128,576,l),
(320,576,l),
(320,512,l),
(192,512,l),
(192,384,l),
(384,384,l),
(384,0,l),
(256,0,l),
(256,320,l),
(192,320,l),
(192,0,l)
);
}
);
width = 448;
}
);
unicode = 64257;
},
{
glyphname = fl;
layers = (
{
layerId = "66415128-06F0-485A-B2B6-660C25DA677B";
shapes = (
{
closed = 1;
nodes = (
(256,384,l),
(256,512,l),
(192,512,l),
(192,384,l)
);
},
{
closed = 1;
nodes = (
(64,0,l),
(64,320,l),
(0,320,l),
(0,384,l),
(64,384,l),
(64,512,l),
(128,512,l),
(128,576,l),
(384,576,l),
(384,0,l),
(256,0,l),
(256,320,l),
(192,320,l),
(192,0,l)
);
}
);
width = 448;
}
);
unicode = 64258;
},
{
glyphname = Acyr;
layers = (
{
layerId = "66415128-06F0-485A-B2B6-660C25DA677B";
shapes = (
{
closed = 1;
nodes = (
(256,256,l),
(256,512,l),
(128,512,l),
(128,256,l)
);
},
{
closed = 1;
nodes = (
(0,0,l),
(0,512,l),
(64,512,l),
(64,576,l),
(320,576,l),
(320,512,l),
(384,512,l),
(384,0,l),
(256,0,l),
(256,192,l),
(128,192,l),
(128,0,l)
);
}
);
width = 448;
}
);
unicode = 1040;
},
{
glyphname = Gecyr;
layers = (
{
layerId = "66415128-06F0-485A-B2B6-660C25DA677B";
shapes = (
{
closed = 1;
nodes = (
(320,512,l),
(320,576,l),
(0,576,l),
(0,0,l),
(128,0,l),
(128,512,l)
);
}
);
width = 384;
}
);
unicode = 1043;
},
{
glyphname = Iecyr;
layers = (
{
layerId = "66415128-06F0-485A-B2B6-660C25DA677B";
shapes = (
{
closed = 1;
nodes = (
(0,0,l),
(0,576,l),
(384,576,l),
(384,512,l),
(128,512,l),
(128,320,l),
(320,320,l),
(320,256,l),
(128,256,l),
(128,64,l),
(384,64,l),
(384,0,l)
);
}
);
width = 448;
}
);
unicode = 1045;
},
{
glyphname = Icyr;
layers = (
{
layerId = "66415128-06F0-485A-B2B6-660C25DA677B";
shapes = (
{
closed = 1;
nodes = (
(384,0,l),
(256,0,l),
(256,320,l),
(192,320,l),
(192,448,l),
(256,448,l),
(256,576,l),
(384,576,l)
);
},
{
closed = 1;
nodes = (
(128,0,l),
(0,0,l),
(0,576,l),
(128,576,l),
(128,320,l),
(192,320,l),
(192,192,l),
(128,192,l)
);
}
);
width = 448;
}
);
unicode = 1048;
},
{
glyphname = hacyr;
layers = (
{
layerId = "66415128-06F0-485A-B2B6-660C25DA677B";
shapes = (
{
closed = 1;
nodes = (
(0,0,l),
(0,128,l),
(64,128,l),
(64,192,l),
(128,192,l),
(128,256,l),
(64,256,l),
(64,320,l),
(0,320,l),
(0,448,l),
(128,448,l),
(128,320,l),
(256,320,l),
(256,448,l),
(384,448,l),
(384,320,l),
(320,320,l),
(320,256,l),
(256,256,l),
(256,192,l),
(320,192,l),
(320,128,l),
(384,128,l),
(384,0,l),
(256,0,l),
(256,128,l),
(128,128,l),
(128,0,l)
);
}
);
width = 448;
}
);
unicode = 1093;
},
{
glyphname = Zecyr;
layers = (
{
layerId = "66415128-06F0-485A-B2B6-660C25DA677B";
shapes = (
{
closed = 1;
nodes = (
(64,0,l),
(64,64,l),
(0,64,l),
(0,192,l),
(128,192,l),
(128,64,l),
(256,64,l),
(256,256,l),
(128,256,l),
(128,320,l),
(256,320,l),
(256,512,l),
(128,512,l),
(128,384,l),
(0,384,l),
(0,512,l),
(64,512,l),
(64,576,l),
(320,576,l),
(320,512,l),
(384,512,l),
(384,320,l),
(320,320,l),
(320,256,l),
(384,256,l),
(384,64,l),
(320,64,l),
(320,0,l)
);
}
);
width = 448;
}
);
unicode = 1047;
},
{
glyphname = Kacyr;
layers = (
{
layerId = "66415128-06F0-485A-B2B6-660C25DA677B";
shapes = (
{
closed = 1;
nodes = (
(0,0,l),
(0,576,l),
(128,576,l),
(128,320,l),
(192,320,l),
(192,448,l),
(256,448,l),
(256,576,l),
(384,576,l),
(384,448,l),
(320,448,l),
(320,320,l),
(256,320,l),
(256,256,l),
(320,256,l),
(320,128,l),
(384,128,l),
(384,0,l),
(256,0,l),
(256,128,l),
(192,128,l),
(192,256,l),
(128,256,l),
(128,0,l)
);
}
);
width = 448;
}
);
unicode = 1050;
},
{
glyphname = Emcyr;
layers = (
{
layerId = "66415128-06F0-485A-B2B6-660C25DA677B";
shapes = (
{
closed = 1;
nodes = (
(0,0,l),
(0,576,l),
(64,576,l),
(64,512,l),
(128,512,l),
(128,448,l),
(192,448,l),
(192,384,l),
(256,384,l),
(256,448,l),
(320,448,l),
(320,512,l),
(384,512,l),
(384,576,l),
(448,576,l),
(448,0,l),
(320,0,l),
(320,320,l),
(256,320,l),
(256,256,l),
(192,256,l),
(192,320,l),
(128,320,l),
(128,0,l)
);
}
);
width = 512;
}
);
unicode = 1052;
},
{
glyphname = Encyr;
layers = (
{
layerId = "66415128-06F0-485A-B2B6-660C25DA677B";
shapes = (
{
closed = 1;
nodes = (
(0,0,l),
(0,576,l),
(128,576,l),
(128,320,l),
(256,320,l),
(256,576,l),
(384,576,l),
(384,0,l),
(256,0,l),
(256,256,l),
(128,256,l),
(128,0,l)
);
}
);
width = 448;
}
);
unicode = 1053;
},
{
glyphname = Ocyr;
layers = (
{
layerId = "66415128-06F0-485A-B2B6-660C25DA677B";
shapes = (
{
closed = 1;
nodes = (
(256,64,l),
(256,512,l),
(128,512,l),
(128,64,l)
);
},
{
closed = 1;
nodes = (
(64,0,l),
(64,64,l),
(0,64,l),
(0,512,l),
(64,512,l),
(64,576,l),
(320,576,l),
(320,512,l),
(384,512,l),
(384,64,l),
(320,64,l),
(320,0,l)
);
}
);
width = 448;
}
);
unicode = 1054;
},
{
glyphname = Pecyr;
layers = (
{
layerId = "66415128-06F0-485A-B2B6-660C25DA677B";
shapes = (
{
closed = 1;
nodes = (
(256,512,l),
(256,0,l),
(384,0,l),
(384,576,l),
(256,576,l),
(0,576,l),
(0,0,l),
(128,0,l),
(128,512,l)
);
}
);
width = 448;
}
);
unicode = 1055;
},
{
glyphname = Yacyr;
layers = (
{
layerId = "66415128-06F0-485A-B2B6-660C25DA677B";
shapes = (
{
closed = 1;
nodes = (
(128,320,l),
(256,320,l),
(256,512,l),
(128,512,l)
);
},
{
closed = 1;
nodes = (
(384,0,l),
(256,0,l),
(256,256,l),
(128,256,l),
(128,0,l),
(0,0,l),
(0,256,l),
(64,256,l),
(64,320,l),
(0,320,l),
(0,512,l),
(64,512,l),
(64,576,l),
(384,576,l)
);
}
);
width = 448;
}
);
unicode = 1071;
},
{
glyphname = acyr;
layers = (
{
layerId = "66415128-06F0-485A-B2B6-660C25DA677B";
shapes = (
{
closed = 1;
nodes = (
(256,64,l),
(256,192,l),
(128,192,l),
(128,64,l)
);
},
{
closed = 1;
nodes = (
(64,0,l),
(64,64,l),
(0,64,l),
(0,192,l),
(64,192,l),
(64,256,l),
(256,256,l),
(256,384,l),
(128,384,l),
(128,320,l),
(0,320,l),
(0,384,l),
(64,384,l),
(64,448,l),
(320,448,l),
(320,384,l),
(384,384,l),
(384,0,l)
);
}
);
width = 448;
}
);
unicode = 1072;
},
{
glyphname = ercyr;
layers = (
{
layerId = "66415128-06F0-485A-B2B6-660C25DA677B";
shapes = (
{
closed = 1;
nodes = (
(256,64,l),
(256,384,l),
(128,384,l),
(128,64,l)
);
},
{
closed = 1;
nodes = (
(0,-192,l),
(0,448,l),
(320,448,l),
(320,384,l),
(384,384,l),
(384,64,l),
(320,64,l),
(320,0,l),
(128,0,l),
(128,-192,l)
);
}
);
width = 448;
}
);
unicode = 1088;
},
{
glyphname = iecyr;
layers = (
{
layerId = "66415128-06F0-485A-B2B6-660C25DA677B";
shapes = (
{
closed = 1;
nodes = (
(256,256,l),
(256,384,l),
(128,384,l),
(128,256,l)
);
},
{
closed = 1;
nodes = (
(64,0,l),
(64,64,l),
(0,64,l),
(0,384,l),
(64,384,l),
(64,448,l),
(320,448,l),
(320,384,l),
(384,384,l),
(384,192,l),
(128,192,l),
(128,64,l),
(256,64,l),
(256,128,l),
(384,128,l),
(384,64,l),
(320,64,l),
(320,0,l)
);
}
);
width = 448;
}
);
unicode = 1077;
},
{
glyphname = iocyr;
layers = (
{
layerId = "66415128-06F0-485A-B2B6-660C25DA677B";
shapes = (
{
closed = 1;
nodes = (
(256,256,l),
(256,384,l),
(128,384,l),
(128,256,l)
);
},
{
closed = 1;
nodes = (
(64,0,l),
(64,64,l),
(0,64,l),
(0,384,l),
(64,384,l),
(64,448,l),
(320,448,l),
(320,384,l),
(384,384,l),
(384,192,l),
(128,192,l),
(128,64,l),
(256,64,l),
(256,128,l),
(384,128,l),
(384,64,l),
(320,64,l),
(320,0,l)
);
},
{
closed = 1;
nodes = (
(0,512,l),
(0,640,l),
(128,640,l),
(128,512,l)
);
},
{
closed = 1;
nodes = (
(256,512,l),
(256,640,l),
(384,640,l),
(384,512,l)
);
}
);
width = 448;
}
);
unicode = 1105;
},
{
glyphname = Hacyr;
layers = (
{
layerId = "66415128-06F0-485A-B2B6-660C25DA677B";
shapes = (
{
closed = 1;
nodes = (
(0,0,l),
(0,128,l),
(64,128,l),
(64,256,l),
(128,256,l),
(128,320,l),
(64,320,l),
(64,448,l),
(0,448,l),
(0,576,l),
(128,576,l),
(128,448,l),
(256,448,l),
(256,576,l),
(384,576,l),
(384,448,l),
(320,448,l),
(320,320,l),
(256,320,l),
(256,256,l),
(320,256,l),
(320,128,l),
(384,128,l),
(384,0,l),
(256,0,l),
(256,128,l),
(128,128,l),
(128,0,l)
);
}
);
width = 448;
}
);
unicode = 1061;
},
{
glyphname = Tecyr;
layers = (
{
layerId = "66415128-06F0-485A-B2B6-660C25DA677B";
shapes = (
{
closed = 1;
nodes = (
(128,0,l),
(128,512,l),
(0,512,l),
(0,576,l),
(384,576,l),
(384,512,l),
(256,512,l),
(256,0,l)
);
}
);
width = 448;
}
);
unicode = 1058;
},
{
glyphname = Escyr;
layers = (
{
layerId = "66415128-06F0-485A-B2B6-660C25DA677B";
shapes = (
{
closed = 1;
nodes = (
(64,0,l),
(64,64,l),
(0,64,l),
(0,512,l),
(64,512,l),
(64,576,l),
(320,576,l),
(320,512,l),
(384,512,l),
(384,384,l),
(256,384,l),
(256,512,l),
(128,512,l),
(128,64,l),
(256,64,l),
(256,192,l),
(384,192,l),
(384,64,l),
(320,64,l),
(320,0,l)
);
}
);
width = 448;
}
);
unicode = 1057;
},
{
glyphname = Softcyr;
layers = (
{
layerId = "66415128-06F0-485A-B2B6-660C25DA677B";
shapes = (
{
closed = 1;
nodes = (
(256,64,l),
(256,256,l),
(128,256,l),
(128,64,l)
);
},
{
closed = 1;
nodes = (
(128,576,l),
(128,320,l),
(320,320,l),
(320,256,l),
(384,256,l),
(384,64,l),
(320,64,l),
(320,0,l),
(0,0,l),
(0,576,l)
);
}
);
width = 448;
}
);
unicode = 1068;
},
{
glyphname = kacyr;
layers = (
{
layerId = "66415128-06F0-485A-B2B6-660C25DA677B";
shapes = (
{
closed = 1;
nodes = (
(0,0,l),
(0,448,l),
(128,448,l),
(128,256,l),
(192,256,l),
(192,320,l),
(256,320,l),
(256,448,l),
(384,448,l),
(384,320,l),
(320,320,l),
(320,256,l),
(256,256,l),
(256,192,l),
(320,192,l),
(320,128,l),
(384,128,l),
(384,0,l),
(256,0,l),
(256,128,l),
(192,128,l),
(192,192,l),
(128,192,l),
(128,0,l)
);
}
);
width = 448;
}
);
unicode = 1082;
},
{
glyphname = ocyr;
layers = (
{
layerId = "66415128-06F0-485A-B2B6-660C25DA677B";
shapes = (
{
closed = 1;
nodes = (
(256,64,l),
(256,384,l),
(128,384,l),
(128,64,l)
);
},
{
closed = 1;
nodes = (
(64,0,l),
(64,64,l),
(0,64,l),
(0,384,l),
(64,384,l),
(64,448,l),
(320,448,l),
(320,384,l),
(384,384,l),
(384,64,l),
(320,64,l),
(320,0,l)
);
}
);
width = 448;
}
);
unicode = 1086;
},
{
glyphname = pecyr;
layers = (
{
layerId = "66415128-06F0-485A-B2B6-660C25DA677B";
shapes = (
{
closed = 1;
nodes = (
(0,0,l),
(0,448,l),
(384,448,l),
(384,0,l),
(256,0,l),
(256,384,l),
(128,384,l),
(128,0,l)
);
}
);
width = 448;
}
);
unicode = 1087;
},
{
glyphname = shacyr;
layers = (
{
layerId = "66415128-06F0-485A-B2B6-660C25DA677B";
shapes = (
{
closed = 1;
nodes = (
(64,0,l),
(448,0,l),
(448,448,l),
(320,448,l),
(320,64,l),
(256,64,l),
(256,384,l),
(192,384,l),
(192,64,l),
(128,64,l),
(128,448,l),
(0,448,l),
(0,64,l),
(64,64,l)
);
}
);
width = 512;
}
);
unicode = 1096;
},
{
glyphname = ucyr;
layers = (
{
layerId = "66415128-06F0-485A-B2B6-660C25DA677B";
shapes = (
{
closed = 1;
nodes = (
(64,-192,l),
(64,-128,l),
(0,-128,l),
(0,-64,l),
(128,-64,l),
(128,-128,l),
(256,-128,l),
(256,0,l),
(64,0,l),
(64,64,l),
(0,64,l),
(0,448,l),
(128,448,l),
(128,64,l),
(256,64,l),
(256,448,l),
(384,448,l),
(384,-128,l),
(320,-128,l),
(320,-192,l)
);
}
);
width = 448;
}
);
unicode = 1091;
},
{
glyphname = becyr;
layers = (
{
layerId = "66415128-06F0-485A-B2B6-660C25DA677B";
shapes = (
{
closed = 1;
nodes = (
(128,64,l),
(128,192,l),
(256,192,l),
(256,64,l)
);
},
{
closed = 1;
nodes = (
(64,64,l),
(64,0,l),
(320,0,l),
(320,64,l),
(384,64,l),
(384,192,l),
(320,192,l),
(320,256,l),
(128,256,l),
(128,384,l),
(320,384,l),
(320,448,l),
(64,448,l),
(64,384,l),
(0,384,l),
(0,64,l)
);
}
);
width = 448;
}
);
unicode = 1073;
},
{
glyphname = zhecyr;
layers = (
{
layerId = "66415128-06F0-485A-B2B6-660C25DA677B";
shapes = (
{
closed = 1;
nodes = (
(192,128,l),
(192,0,l),
(256,0,l),
(256,128,l),
(320,128,l),
(320,0,l),
(448,0,l),
(448,128,l),
(384,128,l),
(384,192,l),
(320,192,l),
(320,256,l),
(384,256,l),
(384,320,l),
(448,320,l),
(448,448,l),
(320,448,l),
(320,320,l),
(256,320,l),
(256,448,l),
(192,448,l),
(192,320,l),
(128,320,l),
(128,448,l),
(0,448,l),
(0,320,l),
(64,320,l),
(64,256,l),
(128,256,l),
(128,192,l),
(64,192,l),
(64,128,l),
(0,128,l),
(0,0,l),
(128,0,l),
(128,128,l)
);
}
);
width = 512;
}
);
unicode = 1078;
},
{
glyphname = zecyr;
layers = (
{
layerId = "66415128-06F0-485A-B2B6-660C25DA677B";
shapes = (
{
closed = 1;
nodes = (
(64,0,l),
(64,64,l),
(0,64,l),
(0,128,l),
(128,128,l),
(128,64,l),
(256,64,l),
(256,192,l),
(128,192,l),
(128,256,l),
(256,256,l),
(256,384,l),
(128,384,l),
(128,320,l),
(0,320,l),
(0,384,l),
(64,384,l),
(64,448,l),
(320,448,l),
(320,384,l),
(384,384,l),
(384,256,l),
(320,256,l),
(320,192,l),
(384,192,l),
(384,64,l),
(320,64,l),
(320,0,l)
);
}
);
width = 448;
}
);
unicode = 1079;
},
{
glyphname = ishortcyr;
layers = (
{
layerId = "66415128-06F0-485A-B2B6-660C25DA677B";
shapes = (
{
closed = 1;
nodes = (
(0,704,l),
(128,704,l),
(128,640,l),
(256,640,l),
(256,704,l),
(384,704,l),
(384,640,l),
(320,640,l),
(320,576,l),
(256,576,l),
(256,512,l),
(128,512,l),
(128,576,l),
(64,576,l),
(64,640,l),
(0,640,l)
);
},
{
closed = 1;
nodes = (
(384,0,l),
(256,0,l),
(256,192,l),
(192,192,l),
(192,320,l),
(256,320,l),
(256,448,l),
(384,448,l)
);
},
{
closed = 1;
nodes = (
(128,0,l),
(0,0,l),
(0,448,l),
(128,448,l),
(128,192,l),
(192,192,l),
(192,64,l),
(128,64,l)
);
}
);
width = 448;
}
);
unicode = 1081;
},
{
glyphname = elcyr;
layers = (
{
layerId = "66415128-06F0-485A-B2B6-660C25DA677B";
shapes = (
{
closed = 1;
nodes = (
(0,0,l),
(0,64,l),
(64,64,l),
(64,384,l),
(128,384,l),
(128,448,l),
(448,448,l),
(448,0,l),
(320,0,l),
(320,384,l),
(192,384,l),
(192,0,l)
);
}
);
width = 512;
}
);
unicode = 1083;
},
{
glyphname = vecyr;
layers = (
{
layerId = "66415128-06F0-485A-B2B6-660C25DA677B";
shapes = (
{
closed = 1;
nodes = (
(128,64,l),
(256,64,l),
(256,192,l),
(128,192,l)
);
},
{
closed = 1;
nodes = (
(256,256,l),
(256,384,l),
(128,384,l),
(128,256,l)
);
},
{
closed = 1;
nodes = (
(320,256,l),
(320,192,l),
(384,192,l),
(384,64,l),
(320,64,l),
(320,0,l),
(64,0,l),
(64,64,l),
(0,64,l),
(0,384,l),
(64,384,l),
(64,448,l),
(320,448,l),
(320,384,l),
(384,384,l),
(384,256,l)
);
}
);
width = 448;
}
);
unicode = 1074;
},
{
glyphname = ylongcyr;
layers = (
{
layerId = "66415128-06F0-485A-B2B6-660C25DA677B";
shapes = (
{
closed = 1;
nodes = (
(256,256,l),
(128,256,l),
(128,64,l),
(256,64,l)
);
},
{
closed = 1;
nodes = (
(0,448,l),
(128,448,l),
(128,320,l),
(320,320,l),
(320,256,l),
(384,256,l),
(384,64,l),
(320,64,l),
(320,0,l),
(0,0,l)
);
},
{
closed = 1;
nodes = (
(448,448,l),
(576,448,l),
(576,0,l),
(448,0,l)
);
}
);
width = 640;
}
);
unicode = 1099;
},
{
glyphname = encyr;
layers = (
{
layerId = "66415128-06F0-485A-B2B6-660C25DA677B";
shapes = (
{
closed = 1;
nodes = (
(0,0,l),
(0,448,l),
(128,448,l),
(128,256,l),
(256,256,l),
(256,448,l),
(384,448,l),
(384,0,l),
(256,0,l),
(256,192,l),
(128,192,l),
(128,0,l)
);
}
);
width = 448;
}
);
unicode = 1085;
},
{
glyphname = yacyr;
layers = (
{
layerId = "66415128-06F0-485A-B2B6-660C25DA677B";
shapes = (
{
closed = 1;
nodes = (
(128,256,l),
(256,256,l),
(256,384,l),
(128,384,l)
);
},
{
closed = 1;
nodes = (
(384,0,l),
(256,0,l),
(256,192,l),
(128,192,l),
(128,0,l),
(0,0,l),
(0,192,l),
(64,192,l),
(64,256,l),
(0,256,l),
(0,384,l),
(64,384,l),
(64,448,l),
(384,448,l)
);
}
);
width = 448;
}
);
unicode = 1103;
},
{
glyphname = yucyr;
layers = (
{
layerId = "66415128-06F0-485A-B2B6-660C25DA677B";
shapes = (
{
closed = 1;
nodes = (
(448,64,l),
(320,64,l),
(320,384,l),
(448,384,l)
);
},
{
closed = 1;
nodes = (
(192,272,l),
(128,272,l),
(128,448,l),
(0,448,l),
(0,0,l),
(128,0,l),
(128,208,l),
(192,208,l),
(192,64,l),
(256,64,l),
(256,0,l),
(512,0,l),
(512,64,l),
(576,64,l),
(576,384,l),
(512,384,l),
(512,448,l),
(256,448,l),
(256,384,l),
(192,384,l)
);
}
);
width = 640;
}
);
unicode = 1102;
},
{
glyphname = ereversedcyr;
layers = (
{
layerId = "66415128-06F0-485A-B2B6-660C25DA677B";
shapes = (
{
closed = 1;
nodes = (
(64,384,l),
(0,384,l),
(0,320,l),
(128,320,l),
(128,384,l),
(256,384,l),
(256,256,l),
(0,256,l),
(0,192,l),
(256,192,l),
(256,64,l),
(128,64,l),
(128,128,l),
(0,128,l),
(0,64,l),
(64,64,l),
(64,0,l),
(320,0,l),
(320,64,l),
(384,64,l),
(384,384,l),
(320,384,l),
(320,448,l),
(64,448,l)
);
}
);
width = 448;
}
);
unicode = 1101;
},
{
glyphname = escyr;
layers = (
{
layerId = "66415128-06F0-485A-B2B6-660C25DA677B";
shapes = (
{
closed = 1;
nodes = (
(64,0,l),
(64,64,l),
(0,64,l),
(0,384,l),
(64,384,l),
(64,448,l),
(320,448,l),
(320,384,l),
(384,384,l),
(384,256,l),
(256,256,l),
(256,384,l),
(128,384,l),
(128,64,l),
(256,64,l),
(256,192,l),
(384,192,l),
(384,64,l),
(320,64,l),
(320,0,l)
);
}
);
width = 448;
}
);
unicode = 1089;
},
{
glyphname = Yucyr;
layers = (
{
layerId = "66415128-06F0-485A-B2B6-660C25DA677B";
shapes = (
{
closed = 1;
nodes = (
(448,64,l),
(448,512,l),
(320,512,l),
(320,64,l)
);
},
{
closed = 1;
nodes = (
(128,576,l),
(128,352,l),
(192,352,l),
(192,512,l),
(256,512,l),
(256,576,l),
(512,576,l),
(512,512,l),
(576,512,l),
(576,64,l),
(512,64,l),
(512,0,l),
(256,0,l),
(256,64,l),
(192,64,l),
(192,288,l),
(128,288,l),
(128,0,l),
(0,0,l),
(0,576,l)
);
}
);
width = 640;
}
);
unicode = 1070;
},
{
glyphname = efcyr;
layers = (
{
layerId = "66415128-06F0-485A-B2B6-660C25DA677B";
shapes = (
{
closed = 1;
nodes = (
(512,384,l),
(512,64,l),
(384,64,l),
(384,384,l)
);
},
{
closed = 1;
nodes = (
(256,384,l),
(256,64,l),
(128,64,l),
(128,384,l)
);
},
{
closed = 1;
nodes = (
(256,0,l),
(256,-192,l),
(384,-192,l),
(384,0,l),
(576,0,l),
(576,64,l),
(640,64,l),
(640,384,l),
(576,384,l),
(576,448,l),
(64,448,l),
(64,384,l),
(0,384,l),
(0,64,l),
(64,64,l),
(64,0,l)
);
}
);
width = 704;
}
);
unicode = 1092;
},
{
glyphname = tsecyr;
layers = (
{
layerId = "66415128-06F0-485A-B2B6-660C25DA677B";
shapes = (
{
closed = 1;
nodes = (
(384,64,l),
(448,64,l),
(448,-64,l),
(320,-64,l),
(320,0,l),
(64,0,l),
(64,64,l),
(0,64,l),
(0,448,l),
(128,448,l),
(128,64,l),
(256,64,l),
(256,448,l),
(384,448,l)
);
}
);
width = 512;
}
);
unicode = 1094;
},
{
glyphname = checyr;
layers = (
{
layerId = "66415128-06F0-485A-B2B6-660C25DA677B";
shapes = (
{
closed = 1;
nodes = (
(256,128,l),
(256,0,l),
(384,0,l),
(384,448,l),
(256,448,l),
(256,192,l),
(128,192,l),
(128,448,l),
(0,448,l),
(0,192,l),
(64,192,l),
(64,128,l)
);
}
);
width = 448;
}
);
unicode = 1095;
},
{
glyphname = Zhecyr;
layers = (
{
layerId = "66415128-06F0-485A-B2B6-660C25DA677B";
shapes = (
{
closed = 1;
nodes = (
(192,448,l),
(192,576,l),
(256,576,l),
(256,448,l),
(320,448,l),
(320,576,l),
(448,576,l),
(448,448,l),
(384,448,l),
(384,320,l),
(320,320,l),
(320,256,l),
(384,256,l),
(384,128,l),
(448,128,l),
(448,0,l),
(320,0,l),
(320,128,l),
(256,128,l),
(256,0,l),
(192,0,l),
(192,128,l),
(128,128,l),
(128,0,l),
(0,0,l),
(0,128,l),
(64,128,l),
(64,256,l),
(128,256,l),
(128,320,l),
(64,320,l),
(64,448,l),
(0,448,l),
(0,576,l),
(128,576,l),
(128,448,l)
);
}
);
width = 512;
}
);
unicode = 1046;
},
{
glyphname = Ishortcyr;
layers = (
{
layerId = "66415128-06F0-485A-B2B6-660C25DA677B";
shapes = (
{
closed = 1;
nodes = (
(384,0,l),
(256,0,l),
(256,320,l),
(192,320,l),
(192,448,l),
(256,448,l),
(256,576,l),
(384,576,l)
);
},
{
closed = 1;
nodes = (
(128,0,l),
(0,0,l),
(0,576,l),
(128,576,l),
(128,320,l),
(192,320,l),
(192,192,l),
(128,192,l)
);
},
{
closed = 1;
nodes = (
(0,832,l),
(128,832,l),
(128,768,l),
(256,768,l),
(256,832,l),
(384,832,l),
(384,768,l),
(320,768,l),
(320,704,l),
(256,704,l),
(256,640,l),
(128,640,l),
(128,704,l),
(64,704,l),
(64,768,l),
(0,768,l)
);
}
);
width = 448;
}
);
unicode = 1049;
},
{
glyphname = Ercyr;
layers = (
{
layerId = "66415128-06F0-485A-B2B6-660C25DA677B";
shapes = (
{
closed = 1;
nodes = (
(256,320,l),
(256,512,l),
(128,512,l),
(128,320,l)
);
},
{
closed = 1;
nodes = (
(0,0,l),
(0,576,l),
(320,576,l),
(320,512,l),
(384,512,l),
(384,320,l),
(320,320,l),
(320,256,l),
(128,256,l),
(128,0,l)
);
}
);
width = 448;
}
);
unicode = 1056;
},
{
glyphname = softcyr;
layers = (
{
layerId = "66415128-06F0-485A-B2B6-660C25DA677B";
shapes = (
{
closed = 1;
nodes = (
(256,256,l),
(128,256,l),
(128,64,l),
(256,64,l)
);
},
{
closed = 1;
nodes = (
(0,448,l),
(128,448,l),
(128,320,l),
(320,320,l),
(320,256,l),
(384,256,l),
(384,64,l),
(320,64,l),
(320,0,l),
(0,0,l)
);
}
);
width = 448;
}
);
unicode = 1100;
},
{
glyphname = hardcyr;
layers = (
{
layerId = "66415128-06F0-485A-B2B6-660C25DA677B";
shapes = (
{
closed = 1;
nodes = (
(320,256,l),
(192,256,l),
(192,64,l),
(320,64,l)
);
},
{
closed = 1;
nodes = (
(64,384,l),
(0,384,l),
(0,448,l),
(192,448,l),
(192,320,l),
(384,320,l),
(384,256,l),
(448,256,l),
(448,64,l),
(384,64,l),
(384,0,l),
(64,0,l)
);
}
);
width = 512;
}
);
unicode = 1098;
},
{
glyphname = shchacyr;
layers = (
{
layerId = "66415128-06F0-485A-B2B6-660C25DA677B";
shapes = (
{
closed = 1;
nodes = (
(448,64,l),
(512,64,l),
(512,-64,l),
(384,-64,l),
(384,0,l),
(64,0,l),
(64,64,l),
(0,64,l),
(0,448,l),
(128,448,l),
(128,64,l),
(192,64,l),
(192,384,l),
(256,384,l),
(256,64,l),
(320,64,l),
(320,448,l),
(448,448,l)
);
}
);
width = 576;
}
);
unicode = 1097;
},
{
glyphname = Elcyr;
layers = (
{
layerId = "66415128-06F0-485A-B2B6-660C25DA677B";
shapes = (
{
closed = 1;
nodes = (
(64,576,l),
(384,576,l),
(384,0,l),
(256,0,l),
(256,512,l),
(128,512,l),
(128,0,l),
(0,0,l),
(0,512,l),
(64,512,l)
);
}
);
width = 448;
}
);
unicode = 1051;
},
{
glyphname = Checyr;
layers = (
{
layerId = "66415128-06F0-485A-B2B6-660C25DA677B";
shapes = (
{
closed = 1;
nodes = (
(256,256,l),
(256,0,l),
(384,0,l),
(384,576,l),
(256,576,l),
(256,320,l),
(128,320,l),
(128,576,l),
(0,576,l),
(0,320,l),
(64,320,l),
(64,256,l)
);
}
);
width = 448;
}
);
unicode = 1063;
},
{
glyphname = Iocyr;
layers = (
{
layerId = "66415128-06F0-485A-B2B6-660C25DA677B";
shapes = (
{
closed = 1;
nodes = (
(0,0,l),
(0,576,l),
(384,576,l),
(384,512,l),
(128,512,l),
(128,320,l),
(320,320,l),
(320,256,l),
(128,256,l),
(128,64,l),
(384,64,l),
(384,0,l)
);
},
{
closed = 1;
nodes = (
(0,640,l),
(0,768,l),
(128,768,l),
(128,640,l)
);
},
{
closed = 1;
nodes = (
(256,640,l),
(256,768,l),
(384,768,l),
(384,640,l)
);
}
);
width = 448;
}
);
unicode = 1025;
},
{
glyphname = Ylongcyr;
layers = (
{
layerId = "66415128-06F0-485A-B2B6-660C25DA677B";
shapes = (
{
closed = 1;
nodes = (
(256,64,l),
(256,256,l),
(128,256,l),
(128,64,l)
);
},
{
closed = 1;
nodes = (
(128,576,l),
(128,320,l),
(320,320,l),
(320,256,l),
(384,256,l),
(384,64,l),
(320,64,l),
(320,0,l),
(0,0,l),
(0,576,l)
);
},
{
closed = 1;
nodes = (
(448,576,l),
(576,576,l),
(576,0,l),
(448,0,l)
);
}
);
width = 640;
}
);
unicode = 1067;
},
{
glyphname = Hardcyr;
layers = (
{
layerId = "66415128-06F0-485A-B2B6-660C25DA677B";
shapes = (
{
closed = 1;
nodes = (
(320,64,l),
(192,64,l),
(192,256,l),
(320,256,l)
);
},
{
closed = 1;
nodes = (
(0,576,l),
(0,512,l),
(64,512,l),
(64,0,l),
(384,0,l),
(384,64,l),
(448,64,l),
(448,256,l),
(384,256,l),
(384,320,l),
(192,320,l),
(192,576,l)
);
}
);
width = 512;
}
);
unicode = 1066;
},
{
glyphname = Ucyr;
layers = (
{
layerId = "66415128-06F0-485A-B2B6-660C25DA677B";
shapes = (
{
closed = 1;
nodes = (
(64,0,l),
(64,64,l),
(0,64,l),
(0,128,l),
(128,128,l),
(128,64,l),
(256,64,l),
(256,192,l),
(64,192,l),
(64,256,l),
(0,256,l),
(0,576,l),
(128,576,l),
(128,256,l),
(256,256,l),
(256,576,l),
(384,576,l),
(384,64,l),
(320,64,l),
(320,0,l)
);
}
);
width = 448;
}
);
unicode = 1059;
},
{
glyphname = Tsecyr;
layers = (
{
layerId = "66415128-06F0-485A-B2B6-660C25DA677B";
shapes = (
{
closed = 1;
nodes = (
(384,64,l),
(448,64,l),
(448,-64,l),
(320,-64,l),
(320,0,l),
(0,0,l),
(0,576,l),
(128,576,l),
(128,64,l),
(256,64,l),
(256,576,l),
(384,576,l)
);
}
);
width = 512;
}
);
unicode = 1062;
},
{
glyphname = Shacyr;
layers = (
{
layerId = "66415128-06F0-485A-B2B6-660C25DA677B";
shapes = (
{
closed = 1;
nodes = (
(384,64,l),
(512,64,l),
(512,576,l),
(640,576,l),
(640,0,l),
(0,0,l),
(0,576,l),
(128,576,l),
(128,64,l),
(256,64,l),
(256,576,l),
(384,576,l)
);
}
);
width = 704;
}
);
unicode = 1064;
},
{
glyphname = Shchacyr;
layers = (
{
layerId = "66415128-06F0-485A-B2B6-660C25DA677B";
shapes = (
{
closed = 1;
nodes = (
(640,64,l),
(704,64,l),
(704,-64,l),
(576,-64,l),
(576,0,l),
(0,0,l),
(0,576,l),
(128,576,l),
(128,64,l),
(256,64,l),
(256,576,l),
(384,576,l),
(384,64,l),
(512,64,l),
(512,576,l),
(640,576,l)
);
}
);
width = 768;
}
);
unicode = 1065;
},
{
glyphname = yukrcyr;
layers = (
{
layerId = "66415128-06F0-485A-B2B6-660C25DA677B";
shapes = (
{
closed = 1;
nodes = (
(0,0,l),
(0,64,l),
(128,64,l),
(128,384,l),
(0,384,l),
(0,448,l),
(256,448,l),
(256,64,l),
(384,64,l),
(384,0,l)
);
},
{
closed = 1;
nodes = (
(0,512,l),
(0,640,l),
(128,640,l),
(128,512,l)
);
},
{
closed = 1;
nodes = (
(256,512,l),
(256,640,l),
(384,640,l),
(384,512,l)
);
}
);
width = 448;
}
);
unicode = 1111;
},
{
glyphname = Yukrcyr;
layers = (
{
layerId = "66415128-06F0-485A-B2B6-660C25DA677B";
shapes = (
{
closed = 1;
nodes = (
(0,0,l),
(0,64,l),
(128,64,l),
(128,512,l),
(0,512,l),
(0,576,l),
(384,576,l),
(384,512,l),
(256,512,l),
(256,64,l),
(384,64,l),
(384,0,l)
);
},
{
closed = 1;
nodes = (
(0,640,l),
(0,768,l),
(128,768,l),
(128,640,l)
);
},
{
closed = 1;
nodes = (
(256,640,l),
(256,768,l),
(384,768,l),
(384,640,l)
);
}
);
width = 448;
}
);
unicode = 1031;
},
{
glyphname = iukrcyr;
layers = (
{
layerId = "66415128-06F0-485A-B2B6-660C25DA677B";
shapes = (
{
closed = 1;
nodes = (
(0,0,l),
(0,64,l),
(128,64,l),
(128,384,l),
(0,384,l),
(0,448,l),
(256,448,l),
(256,64,l),
(384,64,l),
(384,0,l)
);
},
{
closed = 1;
nodes = (
(128,512,l),
(128,640,l),
(256,640,l),
(256,512,l)
);
}
);
width = 448;
}
);
unicode = 1110;
},
{
glyphname = Iukrcyr;
layers = (
{
layerId = "66415128-06F0-485A-B2B6-660C25DA677B";
shapes = (
{
closed = 1;
nodes = (
(0,0,l),
(0,64,l),
(128,64,l),
(128,512,l),
(0,512,l),
(0,576,l),
(384,576,l),
(384,512,l),
(256,512,l),
(256,64,l),
(384,64,l),
(384,0,l)
);
}
);
width = 448;
}
);
unicode = 1030;
},
{
glyphname = jecyr;
layers = (
{
layerId = "66415128-06F0-485A-B2B6-660C25DA677B";
shapes = (
{
closed = 1;
nodes = (
(64,-192,l),
(64,-128,l),
(0,-128,l),
(0,-64,l),
(128,-64,l),
(128,-128,l),
(256,-128,l),
(256,384,l),
(128,384,l),
(128,448,l),
(384,448,l),
(384,-128,l),
(320,-128,l),
(320,-192,l)
);
},
{
closed = 1;
nodes = (
(256,512,l),
(256,640,l),
(384,640,l),
(384,512,l)
);
}
);
width = 448;
}
);
unicode = 1112;
},
{
glyphname = dzecyr;
layers = (
{
layerId = "66415128-06F0-485A-B2B6-660C25DA677B";
shapes = (
{
closed = 1;
nodes = (
(64,0,l),
(64,64,l),
(0,64,l),
(0,128,l),
(128,128,l),
(128,64,l),
(256,64,l),
(256,192,l),
(64,192,l),
(64,256,l),
(0,256,l),
(0,384,l),
(64,384,l),
(64,448,l),
(320,448,l),
(320,384,l),
(384,384,l),
(384,320,l),
(256,320,l),
(256,384,l),
(128,384,l),
(128,256,l),
(320,256,l),
(320,192,l),
(384,192,l),
(384,64,l),
(320,64,l),
(320,0,l)
);
}
);
width = 448;
}
);
unicode = 1109;
},
{
glyphname = Dzecyr;
layers = (
{
layerId = "66415128-06F0-485A-B2B6-660C25DA677B";
shapes = (
{
closed = 1;
nodes = (
(64,0,l),
(64,64,l),
(0,64,l),
(0,192,l),
(128,192,l),
(128,64,l),
(256,64,l),
(256,256,l),
(64,256,l),
(64,320,l),
(0,320,l),
(0,512,l),
(64,512,l),
(64,576,l),
(320,576,l),
(320,512,l),
(384,512,l),
(384,384,l),
(256,384,l),
(256,512,l),
(128,512,l),
(128,320,l),
(320,320,l),
(320,256,l),
(384,256,l),
(384,64,l),
(320,64,l),
(320,0,l)
);
}
);
width = 448;
}
);
unicode = 1029;
},
{
glyphname = Jecyr;
layers = (
{
layerId = "66415128-06F0-485A-B2B6-660C25DA677B";
shapes = (
{
closed = 1;
nodes = (
(64,0,l),
(64,64,l),
(0,64,l),
(0,192,l),
(128,192,l),
(128,64,l),
(256,64,l),
(256,512,l),
(128,512,l),
(128,576,l),
(384,576,l),
(384,64,l),
(320,64,l),
(320,0,l)
);
}
);
width = 448;
}
);
unicode = 1032;
},
{
glyphname = Ereversedcyr;
layers = (
{
layerId = "66415128-06F0-485A-B2B6-660C25DA677B";
shapes = (
{
closed = 1;
nodes = (
(64,512,l),
(0,512,l),
(0,448,l),
(128,448,l),
(128,512,l),
(256,512,l),
(256,320,l),
(128,320,l),
(0,320,l),
(0,256,l),
(256,256,l),
(256,64,l),
(128,64,l),
(128,128,l),
(0,128,l),
(0,64,l),
(64,64,l),
(64,0,l),
(320,0,l),
(320,64,l),
(384,64,l),
(384,512,l),
(320,512,l),
(320,576,l),
(64,576,l)
);
}
);
width = 448;
}
);
unicode = 1069;
},
{
glyphname = Decyr;
layers = (
{
layerId = "66415128-06F0-485A-B2B6-660C25DA677B";
shapes = (
{
closed = 1;
nodes = (
(192,64,l),
(192,512,l),
(320,512,l),
(320,64,l)
);
},
{
closed = 1;
nodes = (
(448,64,l),
(448,576,l),
(128,576,l),
(128,512,l),
(64,512,l),
(64,64,l),
(0,64,l),
(0,-64,l),
(128,-64,l),
(128,0,l),
(384,0,l),
(384,-64,l),
(512,-64,l),
(512,64,l)
);
}
);
width = 576;
}
);
unicode = 1044;
},
{
glyphname = Vecyr;
layers = (
{
layerId = "66415128-06F0-485A-B2B6-660C25DA677B";
shapes = (
{
closed = 1;
nodes = (
(256,64,l),
(256,256,l),
(128,256,l),
(128,64,l)
);
},
{
closed = 1;
nodes = (
(256,320,l),
(256,512,l),
(128,512,l),
(128,320,l)
);
},
{
closed = 1;
nodes = (
(0,0,l),
(0,576,l),
(320,576,l),
(320,512,l),
(384,512,l),
(384,320,l),
(320,320,l),
(320,256,l),
(384,256,l),
(384,64,l),
(320,64,l),
(320,0,l)
);
}
);
width = 448;
}
);
unicode = 1042;
},
{
glyphname = Becyr;
layers = (
{
layerId = "66415128-06F0-485A-B2B6-660C25DA677B";
shapes = (
{
closed = 1;
nodes = (
(256,64,l),
(256,256,l),
(128,256,l),
(128,64,l)
);
},
{
closed = 1;
nodes = (
(320,320,l),
(320,256,l),
(384,256,l),
(384,64,l),
(320,64,l),
(320,0,l),
(0,0,l),
(0,576,l),
(320,576,l),
(320,512,l),
(128,512,l),
(128,320,l)
);
}
);
width = 448;
}
);
unicode = 1041;
},
{
glyphname = Efcyr;
layers = (
{
layerId = "66415128-06F0-485A-B2B6-660C25DA677B";
shapes = (
{
closed = 1;
nodes = (
(512,512,l),
(512,192,l),
(384,192,l),
(384,512,l)
);
},
{
closed = 1;
nodes = (
(256,512,l),
(256,192,l),
(128,192,l),
(128,512,l)
);
},
{
closed = 1;
nodes = (
(256,128,l),
(256,0,l),
(384,0,l),
(384,128,l),
(576,128,l),
(576,192,l),
(640,192,l),
(640,512,l),
(576,512,l),
(576,576,l),
(64,576,l),
(64,512,l),
(0,512,l),
(0,192,l),
(64,192,l),
(64,128,l)
);
}
);
width = 704;
}
);
unicode = 1060;
},
{
glyphname = gecyr;
layers = (
{
layerId = "66415128-06F0-485A-B2B6-660C25DA677B";
shapes = (
{
closed = 1;
nodes = (
(320,384,l),
(320,448,l),
(0,448,l),
(0,0,l),
(128,0,l),
(128,384,l)
);
}
);
width = 384;
}
);
unicode = 1075;
},
{
glyphname = decyr;
layers = (
{
layerId = "66415128-06F0-485A-B2B6-660C25DA677B";
shapes = (
{
closed = 1;
nodes = (
(192,64,l),
(192,384,l),
(320,384,l),
(320,64,l)
);
},
{
closed = 1;
nodes = (
(448,64,l),
(448,448,l),
(128,448,l),
(128,384,l),
(64,384,l),
(64,64,l),
(0,64,l),
(0,-64,l),
(128,-64,l),
(128,0,l),
(384,0,l),
(384,-64,l),
(512,-64,l),
(512,64,l)
);
}
);
width = 576;
}
);
unicode = 1076;
},
{
glyphname = tecyr;
layers = (
{
layerId = "66415128-06F0-485A-B2B6-660C25DA677B";
shapes = (
{
closed = 1;
nodes = (
(128,0,l),
(128,384,l),
(0,384,l),
(0,448,l),
(384,448,l),
(384,384,l),
(256,384,l),
(256,0,l)
);
}
);
width = 448;
}
);
unicode = 1090;
},
{
glyphname = icyr;
layers = (
{
layerId = "66415128-06F0-485A-B2B6-660C25DA677B";
shapes = (
{
closed = 1;
nodes = (
(384,0,l),
(256,0,l),
(256,192,l),
(192,192,l),
(192,320,l),
(256,320,l),
(256,448,l),
(384,448,l)
);
},
{
closed = 1;
nodes = (
(128,0,l),
(0,0,l),
(0,448,l),
(128,448,l),
(128,192,l),
(192,192,l),
(192,64,l),
(128,64,l)
);
}
);
width = 448;
}
);
unicode = 1080;
},
{
glyphname = emcyr;
layers = (
{
layerId = "66415128-06F0-485A-B2B6-660C25DA677B";
shapes = (
{
closed = 1;
nodes = (
(0,0,l),
(0,448,l),
(64,448,l),
(64,384,l),
(128,384,l),
(128,320,l),
(192,320,l),
(192,256,l),
(256,256,l),
(256,320,l),
(320,320,l),
(320,384,l),
(384,384,l),
(384,448,l),
(448,448,l),
(448,0,l),
(320,0,l),
(320,192,l),
(256,192,l),
(256,128,l),
(192,128,l),
(192,192,l),
(128,192,l),
(128,0,l)
);
}
